<?xml version="1.0" encoding="UTF-8"?>
<svg version="1.1" xmlns="http://www.w3.org/2000/svg" width="500" height="500">
<path d="M0 0 C0.72703125 -0.01611328 1.4540625 -0.03222656 2.203125 -0.04882812 C7.96059336 -0.05379146 13.13406193 1.07509986 18.70751953 2.44995117 C23.10050025 3.44907573 27.50421993 4.20152696 31.94921875 4.92578125 C33.63870034 5.20751165 35.32815313 5.4894148 37.01757812 5.77148438 C39.60933714 6.20250277 42.20143306 6.62718335 44.79711914 7.03393555 C54.90258262 8.62803415 63.0553312 10.18444301 71.5 16.3125 C72.82029556 17.0046285 74.15023284 17.67976717 75.5 18.3125 C76.20962891 17.71501953 76.20962891 17.71501953 76.93359375 17.10546875 C77.92552734 16.31076172 77.92552734 16.31076172 78.9375 15.5 C79.57558594 14.97792969 80.21367187 14.45585937 80.87109375 13.91796875 C87.97721949 9.57826938 96.14511844 8.53779079 104.25 7.3125 C113.58100568 5.83366108 122.72710872 4.11487272 131.86328125 1.68359375 C137.51474811 0.32534205 143.02483322 0.10585981 148.8125 0.0625 C149.97881958 0.04860229 149.97881958 0.04860229 151.16870117 0.03442383 C155.39534905 0.05774011 158.64282795 0.37236555 162.5 2.3125 C162.5 2.9725 162.5 3.6325 162.5 4.3125 C163.11875 4.395 163.7375 4.4775 164.375 4.5625 C166.5 5.3125 166.5 5.3125 167.75 7.375 C167.9975 8.014375 168.245 8.65375 168.5 9.3125 C169.16 9.3125 169.82 9.3125 170.5 9.3125 C176.3094693 17.30052029 175.78420174 25.95036848 175.74291992 35.40185547 C175.743994 36.82981961 175.74593454 38.25778332 175.74867249 39.68574524 C175.75350136 43.54688843 175.74589162 47.40791527 175.73571944 51.2690444 C175.72691527 55.31112625 175.72869679 59.35320471 175.7290802 63.39529419 C175.72814518 70.17565858 175.71947971 76.95597807 175.70581055 83.73632812 C175.69004873 91.58390009 175.68481383 99.43142305 175.6855461 107.2790097 C175.68615538 114.82728054 175.68106159 122.37553538 175.67275429 129.92380142 C175.66921711 133.1383082 175.66739044 136.35280933 175.66686058 139.56731796 C175.66585955 143.34464259 175.65978277 147.12192573 175.64969444 150.89923668 C175.64676291 152.28884439 175.64554539 153.67845687 175.64612198 155.06806755 C175.64660934 156.95691237 175.64036329 158.84575544 175.63371277 160.73458862 C175.63203692 161.79385496 175.63036108 162.8531213 175.62863445 163.94448662 C175.5 166.3125 175.5 166.3125 174.5 167.3125 C171.54363389 167.92734914 168.59300028 168.48954086 165.62109375 169.01953125 C164.71009918 169.18497437 163.79910461 169.35041748 162.86050415 169.52087402 C159.88687781 170.05958976 156.91222526 170.59238882 153.9375 171.125 C151.90743546 171.49158549 149.87740614 171.85836608 147.84741211 172.2253418 C136.48785619 174.27270661 125.12051314 176.24346376 113.7253418 178.08300781 C109.0170918 178.85358313 104.38821752 179.74288215 99.75 180.875 C83.08242696 184.83714552 69.54940627 185.79930005 52.88232422 181.6628418 C41.85699881 178.99367609 30.68524844 177.23037715 19.5 175.375 C7.50444352 173.37830169 -4.48504245 171.36378592 -16.4375 169.12109375 C-17.78835693 168.87106346 -17.78835693 168.87106346 -19.16650391 168.61598206 C-25.38052857 167.43197143 -25.38052857 167.43197143 -26.5 166.3125 C-26.6052723 164.44735195 -26.63966823 162.57818451 -26.64717102 160.71008301 C-26.65790398 158.88483093 -26.65790398 158.88483093 -26.66885376 157.02270508 C-26.6716944 155.66162135 -26.67440609 154.30053734 -26.67700195 152.93945312 C-26.68326404 151.51550123 -26.68991061 150.09155098 -26.69691467 148.66760254 C-26.7143564 144.78702164 -26.72488658 140.9064531 -26.7331202 137.02584267 C-26.73826716 134.60039174 -26.74434325 132.17494467 -26.75063133 129.74949646 C-26.76969838 122.15851674 -26.78392225 114.5675468 -26.7922433 106.97654772 C-26.80200074 98.21959485 -26.8282746 89.46289577 -26.86874419 80.70603228 C-26.89895248 73.93649857 -26.91371692 67.16703735 -26.91702431 60.39743757 C-26.91937086 56.35554735 -26.92827824 52.31392776 -26.95348549 48.27210999 C-26.97685174 44.46353754 -26.98096545 40.65541218 -26.97072411 36.8467865 C-26.97023058 35.45407622 -26.97649664 34.06134333 -26.99028015 32.66870117 C-27.08133542 22.91730469 -26.11203219 14.77887231 -19.4375 7.25 C-18.70853516 6.39728516 -18.70853516 6.39728516 -17.96484375 5.52734375 C-16.5 4.3125 -16.5 4.3125 -13.5 4.3125 C-13.5 3.6525 -13.5 2.9925 -13.5 2.3125 C-9.05653651 0.09958465 -4.8644941 -0.02068237 0 0 Z M-6 20.125 C-8.38516442 23.60336478 -8.62433961 26.35119471 -8.62025452 30.45671082 C-8.62162918 31.52101822 -8.62300385 32.58532562 -8.62442017 33.68188477 C-8.62082489 34.84929199 -8.61722961 36.01669922 -8.61352539 37.21948242 C-8.61367142 38.44887039 -8.61381744 39.67825836 -8.6139679 40.94490051 C-8.61339016 44.31654012 -8.60837112 47.68811866 -8.60139394 51.05974746 C-8.59514726 54.58314952 -8.59455556 58.10655237 -8.59336853 61.62995911 C-8.5902591 68.3022353 -8.58205092 74.97449512 -8.57201904 81.6467641 C-8.56084588 89.24281747 -8.55534442 96.83887162 -8.55032361 104.43493116 C-8.539868 120.06079692 -8.52227605 135.68664635 -8.5 151.3125 C-4.57992948 152.10536949 -0.65916529 152.89475797 3.26171875 153.68359375 C4.90182922 154.01538635 4.90182922 154.01538635 6.57507324 154.35388184 C13.80344844 155.80596904 21.04337766 157.14358343 28.3125 158.375 C36.59104063 159.77898554 44.82290131 161.32743957 53.0324707 163.09399414 C54.17848755 163.33363892 54.17848755 163.33363892 55.34765625 163.578125 C56.00773682 163.72024414 56.66781738 163.86236328 57.34790039 164.00878906 C60.076714 164.39388766 62.74724896 164.33073509 65.5 164.3125 C65.54674806 148.5093107 65.58200259 132.7061401 65.60362434 116.90289879 C65.61393113 109.56496238 65.62798002 102.22706897 65.65087891 94.88916016 C65.6708311 88.49245697 65.68372079 82.09578494 65.68817699 75.6990515 C65.69078128 72.31292275 65.69688999 68.92688309 65.71146011 65.54078293 C65.72596058 61.75809173 65.72797851 57.97558558 65.72705078 54.19287109 C65.73783661 52.51404343 65.73783661 52.51404343 65.74884033 50.80130005 C65.7290293 43.34494884 64.90562822 37.55380665 60.5 31.3125 C59.84 31.3125 59.18 31.3125 58.5 31.3125 C58.5 30.6525 58.5 29.9925 58.5 29.3125 C52.04681362 27.12744818 45.71909452 25.753228 38.96875 24.83984375 C32.75196522 23.89472444 26.61333195 22.55253087 20.46484375 21.2421875 C19.63533203 21.06816406 18.80582031 20.89414063 17.95117188 20.71484375 C16.27006581 20.36216416 14.59036088 20.00274112 12.91210938 19.63671875 C3.07703301 17.32930382 3.07703301 17.32930382 -6 20.125 Z M134.375 20.0625 C125.79774839 21.88322772 117.20043709 23.44108231 108.54248047 24.82910156 C95.57682491 26.72720507 95.57682491 26.72720507 85.55859375 34.3984375 C83.44982155 38.21134664 83.37537606 42.30566205 83.37974548 46.58332825 C83.37837082 47.62514252 83.37699615 48.66695679 83.37557983 49.74034119 C83.37917511 50.87250565 83.38277039 52.0046701 83.38647461 53.17114258 C83.38632858 54.37156189 83.38618256 55.5719812 83.3860321 56.80877686 C83.38660852 60.09145106 83.3916166 63.37408238 83.39860606 66.65674806 C83.40486623 70.09071811 83.40544551 73.52468906 83.40663147 76.95866394 C83.40973694 83.45733552 83.41793974 89.95599023 83.42798096 96.4546544 C83.43916646 103.85486904 83.44465869 111.25508451 83.44967639 118.6553055 C83.46012301 133.8743801 83.47770726 149.09343787 83.5 164.3125 C84.94048701 164.15514236 86.3808906 163.99702105 87.82125854 163.83857727 C88.62339216 163.75060536 89.42552578 163.66263346 90.25196648 163.57199574 C92.78903967 163.27913548 95.30200997 162.90501687 97.8203125 162.48046875 C98.75601074 162.32384766 99.69170898 162.16722656 100.65576172 162.00585938 C101.63561035 161.83892578 102.61545898 161.67199219 103.625 161.5 C105.18565186 161.23606445 105.18565186 161.23606445 106.77783203 160.96679688 C108.94520233 160.59941274 111.11235626 160.23074996 113.27929688 159.86083984 C116.36755026 159.33505019 119.45705449 158.81726893 122.546875 158.30078125 C124.48965295 157.97176498 126.43236401 157.64235342 128.375 157.3125 C129.22723145 157.17094482 130.07946289 157.02938965 130.95751953 156.88354492 C136.97208598 155.85058639 142.91838682 154.57722034 148.87158203 153.2421875 C149.70327408 153.05648193 150.53496613 152.87077637 151.39186096 152.67944336 C153.42809856 152.22465103 155.46407589 151.76869364 157.5 151.3125 C157.57009071 134.97051537 157.62298843 118.62857953 157.65543652 102.2864809 C157.67090339 94.69850451 157.6919894 87.11062152 157.72631836 79.52270508 C157.75622631 72.90883436 157.77557632 66.29503129 157.78226548 59.68109483 C157.78617541 56.17925687 157.79536031 52.67761247 157.81719017 49.17583656 C157.84136581 45.26603196 157.84196909 41.35641646 157.84057617 37.4465332 C157.851362 36.28631653 157.86214783 35.12609985 157.8732605 33.9307251 C157.86913651 32.86366837 157.86501251 31.79661163 157.86076355 30.69721985 C157.86352893 29.77266149 157.86629431 28.84810312 157.86914349 27.89552784 C157.28666882 23.81974613 155.3685115 21.1810115 152.5 18.3125 C146.38674728 17.46069313 140.32351687 18.74094492 134.375 20.0625 Z " fill="#915CFB" transform="translate(175.5,157.6875)"/>
<path d="M0 0 C5.33003803 0.10925407 10.54827686 0.83680374 15.8125 1.625 C16.628396 1.74254639 17.44429199 1.86009277 18.28491211 1.98120117 C23.04106064 2.74251573 26.83008708 3.87544934 31.0625 6.3125 C31.0625 6.6425 31.0625 6.9725 31.0625 7.3125 C24.66513626 6.97822334 18.59954811 6.30613703 12.375 4.75 C7.04388985 3.4508219 2.53811385 2.78260189 -2.9375 3.3125 C-5.36979584 5.24702366 -5.92833974 6.28501923 -6.9375 9.3125 C-7.03911574 11.02503568 -7.08376958 12.74120464 -7.09571838 14.45671082 C-7.1055072 15.52101822 -7.11529602 16.58532562 -7.12538147 17.68188477 C-7.13113693 18.84929199 -7.1368924 20.01669922 -7.14282227 21.21948242 C-7.15272186 22.44887039 -7.16262146 23.67825836 -7.17282104 24.94490051 C-7.19901588 28.31651099 -7.22087501 31.6880977 -7.24082303 35.05974746 C-7.26268876 38.58317727 -7.29007458 42.10656403 -7.31687927 45.62995911 C-7.36679821 52.30220388 -7.41174 58.97447256 -7.45490164 65.6467641 C-7.50428084 73.24284811 -7.55919643 80.83888893 -7.61458123 88.43493116 C-7.72838901 104.06074752 -7.83523068 119.68660361 -7.9375 135.3125 C-5.2975 135.6425 -2.6575 135.9725 0.0625 136.3125 C-3.28751838 137.42917279 -5.53004812 137.07536236 -8.9375 136.3125 C-9.00761443 119.72701817 -9.06050006 103.14158449 -9.09293652 86.55599022 C-9.10839836 78.85482195 -9.12947475 71.15374584 -9.16381836 63.45263672 C-9.19374171 56.73950692 -9.21307997 50.02644387 -9.21976548 43.31324923 C-9.2236728 39.75940158 -9.23284109 36.20574486 -9.25469017 32.65195847 C-9.27889646 28.68248698 -9.2794681 24.71320144 -9.27807617 20.74365234 C-9.288862 19.56832947 -9.29964783 18.39300659 -9.3107605 17.18206787 C-9.28230604 9.69406465 -9.12914758 0.72453552 0 0 Z " fill="#CAAFF9" transform="translate(174.9375,173.6875)"/>
<path d="M0 0 C1.25974428 2.51948855 1.1075179 4.20411026 1.08229065 7.0239563 C1.07525116 8.08688904 1.06821167 9.14982178 1.06095886 10.2449646 C1.04801285 11.4159671 1.03506683 12.5869696 1.02172852 13.79345703 C1.01212097 15.02269897 1.00251343 16.25194092 0.99261475 17.51843262 C0.96523466 20.8942933 0.93333893 24.27005547 0.89946485 27.64585352 C0.86514098 31.17190193 0.83654904 34.69799661 0.80735779 38.22409058 C0.75118578 44.90351578 0.68983389 51.58288304 0.62663645 58.26224506 C0.55494858 65.86549845 0.48901171 73.46879827 0.42356598 81.07210755 C0.28879175 96.71479904 0.14676911 112.35741618 0 128 C0.75128174 127.8570752 1.50256348 127.71415039 2.27661133 127.56689453 C3.2642749 127.38239746 4.25193848 127.19790039 5.26953125 127.0078125 C6.24768799 126.8236377 7.22584473 126.63946289 8.23364258 126.44970703 C11.19375611 125.96850245 14.00530497 125.83812459 17 126 C17 126.66 17 127.32 17 128 C16.26394531 128.06058594 15.52789062 128.12117187 14.76953125 128.18359375 C13.79371094 128.26738281 12.81789063 128.35117187 11.8125 128.4375 C10.84957031 128.51871094 9.88664062 128.59992188 8.89453125 128.68359375 C6.00930376 128.92366476 6.00930376 128.92366476 3.32421875 129.72265625 C1 130 1 130 -0.62466812 128.83842659 C-2.45710272 126.38898399 -2.35861771 124.90635142 -2.32952881 121.86251831 C-2.32668381 120.79965607 -2.32383881 119.73679382 -2.32090759 118.64172363 C-2.30234207 117.47588745 -2.28377655 116.31005127 -2.26464844 115.10888672 C-2.25693924 113.88110504 -2.24923004 112.65332336 -2.24128723 111.38833618 C-2.21700603 108.0204852 -2.17923065 104.65330051 -2.13518429 101.28568411 C-2.09204401 97.76550634 -2.06523018 94.24520303 -2.03643799 90.72488403 C-1.98573923 84.81499023 -1.92368612 78.90530452 -1.85400391 72.99560547 C-1.76451479 65.40109495 -1.69366213 57.80653023 -1.62871933 50.21177483 C-1.57282235 43.69147132 -1.50844725 37.1712556 -1.44266987 30.65104532 C-1.42183125 28.55027744 -1.40215339 26.44950095 -1.38262177 24.34872055 C-1.34566558 20.44317568 -1.29988156 16.53776233 -1.25292969 12.63232422 C-1.24246109 11.46243958 -1.23199249 10.29255493 -1.22120667 9.08721924 C-1.20708237 8.02999664 -1.19295807 6.97277405 -1.17840576 5.8835144 C-1.16805676 4.95916533 -1.15770775 4.03481625 -1.14704514 3.08245659 C-1 1 -1 1 0 0 Z " fill="#8759E4" transform="translate(258,195)"/>
<path d="M0 0 C0.80759766 -0.01224609 1.61519531 -0.02449219 2.44726562 -0.03710938 C6.81602255 -0.04784342 10.21004059 0.14632915 14.1875 2.1875 C14.1875 2.8475 14.1875 3.5075 14.1875 4.1875 C14.80625 4.290625 15.425 4.39375 16.0625 4.5 C18.1875 5.1875 18.1875 5.1875 20.1875 8.1875 C16.75 7.375 16.75 7.375 13.1875 6.1875 C12.6925 4.7025 12.6925 4.7025 12.1875 3.1875 C2.26774878 2.81343117 -7.0277399 3.4237153 -16.80761719 5.12036133 C-21.89593343 5.98747719 -26.64842897 6.3296304 -31.8125 6.1875 C-28.97214526 4.29393017 -27.86709611 3.85328876 -24.65234375 3.37109375 C-23.85892578 3.24669922 -23.06550781 3.12230469 -22.24804688 2.99414062 C-21.01151367 2.81141602 -21.01151367 2.81141602 -19.75 2.625 C-18.11284436 2.37656004 -16.47610061 2.12538591 -14.83984375 1.87109375 C-13.75304321 1.70951782 -13.75304321 1.70951782 -12.64428711 1.54467773 C-8.30305507 0.69818667 -4.57044803 0.00359595 0 0 Z " fill="#BC9FEF" transform="translate(323.8125,157.8125)"/>
<path d="M0 0 C0 0.33 0 0.66 0 1 C-0.98842896 1.15819214 -0.98842896 1.15819214 -1.99682617 1.31958008 C-16.82869276 3.62493476 -16.82869276 3.62493476 -31.5 6.75 C-36.16004306 7.90409366 -40.21029239 8.28174751 -45 8 C-45 7.34 -45 6.68 -45 6 C-43.82630859 5.80083984 -43.82630859 5.80083984 -42.62890625 5.59765625 C-41.61699219 5.42105469 -40.60507812 5.24445313 -39.5625 5.0625 C-38.55316406 4.88847656 -37.54382813 4.71445312 -36.50390625 4.53515625 C-34.0712562 4.25248903 -34.0712562 4.25248903 -33 3 C-30.68182911 2.67902249 -28.36220643 2.48779044 -26.03125 2.28125 C-24.00819407 2.20934163 -24.00819407 2.20934163 -23 1 C-15.38345326 -0.15748647 -7.68344103 -0.12068232 0 0 Z " fill="#A582EF" transform="translate(306,332)"/>
<path d="M0 0 C-2.8864517 2.8864517 -6.12380968 2.59513679 -10 3 C-12.73710131 3.45618355 -15.12095536 4.04371672 -17.734375 4.98828125 C-21.09798284 6.03035593 -24.11961918 6.47088303 -27.625 6.75 C-28.73101562 6.84796875 -29.83703125 6.9459375 -30.9765625 7.046875 C-34.07037808 6.99890887 -35.35971317 6.45361707 -38 5 C-37.35562988 4.88930176 -36.71125977 4.77860352 -36.04736328 4.66455078 C-33.07300097 4.15275809 -30.09900067 3.63888982 -27.125 3.125 C-25.60519531 2.86396484 -25.60519531 2.86396484 -24.0546875 2.59765625 C-23.04921875 2.42363281 -22.04375 2.24960937 -21.0078125 2.0703125 C-20.00266602 1.89661133 -18.99751953 1.72291016 -17.96191406 1.54394531 C-14.36778076 0.88389512 -10.80738301 0.09789414 -7.24951172 -0.73486328 C-4.62771583 -1.04387895 -2.5488099 -0.63312955 0 0 Z " fill="#AF8DF0" transform="translate(330,311)"/>
<path d="M0 0 C0.815896 0.11762695 1.63179199 0.23525391 2.47241211 0.35644531 C7.22865657 1.11728875 11.01760732 2.25046099 15.25 4.6875 C15.25 5.0175 15.25 5.3475 15.25 5.6875 C8.88982812 5.35516669 2.87000843 4.69657289 -3.3125 3.125 C-9.22642862 1.65366027 -14.68162298 1.35915094 -20.75 1.6875 C-21.08 1.0275 -21.41 0.3675 -21.75 -0.3125 C-15.59469068 -3.39015466 -6.58200289 -0.99117813 0 0 Z " fill="#B495EF" transform="translate(190.75,175.3125)"/>
<path d="M0 0 C7.45602598 0.55674308 14.71950103 1.54155179 22.0625 2.9375 C22.97837891 3.10701172 23.89425781 3.27652344 24.83789062 3.45117188 C30.90281766 4.58002949 36.95362275 5.77598727 43 7 C43 7.33 43 7.66 43 8 C33.46474527 7.66522713 24.49224535 6.92259173 15.17578125 4.6875 C11.41057806 3.87240066 7.73406689 3.55896955 3.890625 3.40625 C2 3 2 3 0 0 Z " fill="#BEA1F1" transform="translate(192,314)"/>
<path d="M0 0 C0.78938965 0.00128906 1.5787793 0.00257813 2.39208984 0.00390625 C9.40106472 0.11738894 15.76721551 1.31407634 22.5 3.3125 C19.59330538 4.16555168 17.18951127 4.38539715 14.171875 4.19140625 C13.37265625 4.14306641 12.5734375 4.09472656 11.75 4.04492188 C10.925 3.98884766 10.1 3.93277344 9.25 3.875 C8.40953125 3.82279297 7.5690625 3.77058594 6.703125 3.71679688 C4.6350648 3.58754311 2.5674778 3.45075726 0.5 3.3125 C0.5 2.9825 0.5 2.6525 0.5 2.3125 C-2.8 2.3125 -6.1 2.3125 -9.5 2.3125 C-9.5 2.9725 -9.5 3.6325 -9.5 4.3125 C-10.82 4.3125 -12.14 4.3125 -13.5 4.3125 C-13.5 3.6525 -13.5 2.9925 -13.5 2.3125 C-9.06090973 0.10176258 -4.86179963 -0.03277388 0 0 Z " fill="#CAB0F7" transform="translate(175.5,157.6875)"/>
<path d="M0 0 C0.66 0.33 1.32 0.66 2 1 C1.360625 1.495 0.72125 1.99 0.0625 2.5 C-2.12767311 5.15475529 -2.28968446 5.86307503 -2.5625 9.125 C-2.706875 10.40375 -2.85125 11.6825 -3 13 C-3.99 13.66 -4.98 14.32 -6 15 C-6.73606499 18.56769552 -6.73606499 18.56769552 -7 22 C-7.33 22 -7.66 22 -8 22 C-9.03349212 10.5167542 -9.03349212 10.5167542 -5.125 5.375 C-3.48515524 3.49749658 -1.76296123 1.76296123 0 0 Z " fill="#B794F7" transform="translate(159,162)"/>
<path d="M0 0 C0 0.33 0 0.66 0 1 C-2.70726366 1.5064814 -5.41557124 2.005351 -8.125 2.5 C-9.26582031 2.71462891 -9.26582031 2.71462891 -10.4296875 2.93359375 C-14.68042914 3.70312456 -18.65859197 4.16644376 -23 4 C-16.88615187 -1.62474028 -7.7495581 -0.11452549 0 0 Z " fill="#BA9BEE" transform="translate(306,332)"/>
<path d="M0 0 C7.02765937 0.82678345 14.00998353 1.90248217 21 3 C21 3.33 21 3.66 21 4 C14.31665321 5.6708367 8.44946053 4.22158959 2 2 C1.34 1.34 0.68 0.68 0 0 Z " fill="#BF9FF0" transform="translate(200,162)"/>
<path d="M0 0 C2.10409639 -0.02701408 4.20829178 -0.04640223 6.3125 -0.0625 C7.48425781 -0.07410156 8.65601563 -0.08570313 9.86328125 -0.09765625 C13 0 13 0 16 1 C16 1.66 16 2.32 16 3 C17.32 3.33 18.64 3.66 20 4 C13.2142064 3.45136137 6.64990964 2.45732062 0 1 C0 0.67 0 0.34 0 0 Z " fill="#C0A4F2" transform="translate(168,327)"/>
<path d="M0 0 C0 0.66 0 1.32 0 2 C-5.38027025 3.19088986 -10.45291384 4.2919519 -16 4 C-15.360625 3.896875 -14.72125 3.79375 -14.0625 3.6875 C-13.381875 3.460625 -12.70125 3.23375 -12 3 C-11.67 2.01 -11.34 1.02 -11 0 C-3.57142857 -1.28571429 -3.57142857 -1.28571429 0 0 Z " fill="#B595F0" transform="translate(350,323)"/>
<path d="M0 0 C1.2684375 0.12375 1.2684375 0.12375 2.5625 0.25 C3.2225 1.24 3.8825 2.23 4.5625 3.25 C0.88862505 4.10298376 -2.4822393 4.35789471 -6.25 4.3125 C-7.71373047 4.29896484 -7.71373047 4.29896484 -9.20703125 4.28515625 C-10.31111328 4.26775391 -10.31111328 4.26775391 -11.4375 4.25 C-11.1075 3.59 -10.7775 2.93 -10.4375 2.25 C-8.11034 1.87599214 -5.77632138 1.54235267 -3.4375 1.25 C-2.4375 0.25 -2.4375 0.25 0 0 Z " fill="#AD8BF0" transform="translate(317.4375,326.75)"/>
<path d="M0 0 C5.70629354 0.42797202 9.41078616 2.84345952 14 6 C13.01 6.495 13.01 6.495 12 7 C12 7.66 12 8.32 12 9 C11.34 9 10.68 9 10 9 C9.608125 8.236875 9.21625 7.47375 8.8125 6.6875 C6.34149981 3.02360316 4.10810485 2.47271683 0 1 C0 0.67 0 0.34 0 0 Z " fill="#8A5BEA" transform="translate(232,169)"/>
<path d="M0 0 C0 0.33 0 0.66 0 1 C-1.93475671 1.53093324 -3.87293155 2.04942317 -5.8125 2.5625 C-7.43091797 2.99755859 -7.43091797 2.99755859 -9.08203125 3.44140625 C-12 4 -12 4 -15 3 C-14.34 3 -13.68 3 -13 3 C-12.67 2.01 -12.34 1.02 -12 0 C-7.6835078 -0.76173392 -4.25566547 -1.16063604 0 0 Z " fill="#B898F0" transform="translate(281,183)"/>
<path d="M0 0 C-0.33 0.66 -0.66 1.32 -1 2 C-6.25530593 3.34751434 -11.61579398 3.09576651 -17 3 C-11.81485923 -0.45676052 -6.08514218 -0.12418658 0 0 Z " fill="#CCB3F4" transform="translate(282,319)"/>
<path d="M0 0 C-1 1.5 -1 1.5 -3 3 C-5.71846235 3.27345479 -8.25677199 3.13491285 -11 3 C-11 2.34 -11 1.68 -11 1 C-7.32589215 -0.17571451 -3.83070817 -0.07366746 0 0 Z " fill="#AF8DEF" transform="translate(272,337)"/>
<path d="M0 0 C0.99 0 1.98 0 3 0 C4.75 2.3125 4.75 2.3125 6 5 C5.67 5.99 5.34 6.98 5 8 C5 7.34 5 6.68 5 6 C4.34 6 3.68 6 3 6 C3 5.34 3 4.68 3 4 C1.68 4.33 0.36 4.66 -1 5 C-0.67 3.35 -0.34 1.7 0 0 Z " fill="#B391F1" transform="translate(343,167)"/>
<path d="M0 0 C0.91007813 0.00902344 1.82015625 0.01804688 2.7578125 0.02734375 C3.45648438 0.03894531 4.15515625 0.05054688 4.875 0.0625 C4.545 0.7225 4.215 1.3825 3.875 2.0625 C1.58984375 2.4765625 1.58984375 2.4765625 -1.1875 2.6875 C-2.56615234 2.79964844 -2.56615234 2.79964844 -3.97265625 2.9140625 C-4.68292969 2.96304688 -5.39320313 3.01203125 -6.125 3.0625 C-6.455 2.4025 -6.785 1.7425 -7.125 1.0625 C-4.60024538 -0.19987731 -2.81299534 -0.03606404 0 0 Z " fill="#B08AED" transform="translate(176.125,173.9375)"/>
<path d="M0 0 C1.20220203 3.53094302 0.79532349 6.12898982 0.0625 9.75 C-0.13214844 10.73484375 -0.32679688 11.7196875 -0.52734375 12.734375 C-0.68332031 13.48203125 -0.83929688 14.2296875 -1 15 C-1.33 15 -1.66 15 -2 15 C-2.05406122 13.06280622 -2.09282025 11.12518079 -2.125 9.1875 C-2.14820313 8.10855469 -2.17140625 7.02960938 -2.1953125 5.91796875 C-2 3 -2 3 0 0 Z " fill="#AD87EF" transform="translate(153,169)"/>
<path d="M0 0 C-0.625 1.875 -0.625 1.875 -2 4 C-5.125 5.25 -5.125 5.25 -8 6 C-3.375 0 -3.375 0 0 0 Z " fill="#895BE8" transform="translate(164,162)"/>
<path d="M0 0 C0.99 0.33 1.98 0.66 3 1 C0.525 4.465 0.525 4.465 -2 8 C-3.34882814 5.30234372 -2.80338265 3.84835666 -2 1 C-1.34 0.67 -0.68 0.34 0 0 Z " fill="#B593F6" transform="translate(263,186)"/>
<path d="M0 0 C-0.5775 0.268125 -1.155 0.53625 -1.75 0.8125 C-4.06163244 1.93012871 -4.06163244 1.93012871 -6 3.6875 C-8 5 -8 5 -10.25 4.6875 C-10.8275 4.460625 -11.405 4.23375 -12 4 C-4.71428571 -0.57142857 -4.71428571 -0.57142857 0 0 Z " fill="#DCC6F7" transform="translate(268,168)"/>
<path d="M0 0 C0.99 0 1.98 0 3 0 C3 0.66 3 1.32 3 2 C3.928125 2.1546875 3.928125 2.1546875 4.875 2.3125 C7 3 7 3 9 6 C2.35384615 4.52307692 2.35384615 4.52307692 0.5625 1.875 C0.376875 1.25625 0.19125 0.6375 0 0 Z " fill="#CCB3F5" transform="translate(335,160)"/>
<path d="M0 0 C0 0.99 0 1.98 0 3 C0.66 3.33 1.32 3.66 2 4 C-1.3 3.34 -4.6 2.68 -8 2 C-4 0 -4 0 0 0 Z " fill="#C2A5F2" transform="translate(232,183)"/>
<path d="M0 0 C0 0.66 0 1.32 0 2 C0.99 2.33 1.98 2.66 3 3 C-0.63 2.67 -4.26 2.34 -8 2 C-4 0 -4 0 0 0 Z " fill="#CBAFF8" transform="translate(196,330)"/>
<path d="" fill="#FFFFFF" transform="translate(0,0)"/>
<path d="" fill="#FFFFFF" transform="translate(0,0)"/>
<path d="" fill="#FFFFFF" transform="translate(0,0)"/>
<path d="" fill="#FFFFFF" transform="translate(0,0)"/>
<path d="" fill="#FFFFFF" transform="translate(0,0)"/>
<path d="" fill="#FFFFFF" transform="translate(0,0)"/>
<path d="" fill="#FFFFFF" transform="translate(0,0)"/>
<path d="" fill="#FFFFFF" transform="translate(0,0)"/>
<path d="" fill="#FFFFFF" transform="translate(0,0)"/>
<path d="" fill="#FFFFFF" transform="translate(0,0)"/>
<path d="" fill="#FFFFFF" transform="translate(0,0)"/>
<path d="" fill="#FFFFFF" transform="translate(0,0)"/>
<path d="" fill="#FFFFFF" transform="translate(0,0)"/>
<path d="" fill="#FFFFFF" transform="translate(0,0)"/>
<path d="" fill="#FFFFFF" transform="translate(0,0)"/>
<path d="" fill="#FFFFFF" transform="translate(0,0)"/>
<path d="" fill="#FFFFFF" transform="translate(0,0)"/>
<path d="" fill="#FFFFFF" transform="translate(0,0)"/>
<path d="" fill="#FFFFFF" transform="translate(0,0)"/>
<path d="" fill="#FFFFFF" transform="translate(0,0)"/>
<path d="" fill="#FFFFFF" transform="translate(0,0)"/>
<path d="" fill="#FFFFFF" transform="translate(0,0)"/>
<path d="" fill="#FFFFFF" transform="translate(0,0)"/>
<path d="" fill="#FFFFFF" transform="translate(0,0)"/>
<path d="" fill="#FFFFFF" transform="translate(0,0)"/>
<path d="" fill="#FFFFFF" transform="translate(0,0)"/>
<path d="" fill="#FFFFFF" transform="translate(0,0)"/>
<path d="" fill="#FFFFFF" transform="translate(0,0)"/>
<path d="" fill="#FFFFFF" transform="translate(0,0)"/>
<path d="" fill="#FFFFFF" transform="translate(0,0)"/>
<path d="" fill="#FFFFFF" transform="translate(0,0)"/>
<path d="" fill="#FFFFFF" transform="translate(0,0)"/>
<path d="" fill="#FFFFFF" transform="translate(0,0)"/>
<path d="" fill="#FFFFFF" transform="translate(0,0)"/>
<path d="" fill="#FFFFFF" transform="translate(0,0)"/>
<path d="" fill="#FFFFFF" transform="translate(0,0)"/>
<path d="" fill="#FFFFFF" transform="translate(0,0)"/>
<path d="" fill="#FFFFFF" transform="translate(0,0)"/>
<path d="" fill="#FFFFFF" transform="translate(0,0)"/>
<path d="" fill="#FFFFFF" transform="translate(0,0)"/>
<path d="" fill="#FFFFFF" transform="translate(0,0)"/>
<path d="" fill="#FFFFFF" transform="translate(0,0)"/>
<path d="" fill="#FFFFFF" transform="translate(0,0)"/>
<path d="" fill="#FFFFFF" transform="translate(0,0)"/>
<path d="" fill="#FFFFFF" transform="translate(0,0)"/>
<path d="" fill="#FFFFFF" transform="translate(0,0)"/>
<path d="" fill="#FFFFFF" transform="translate(0,0)"/>
<path d="" fill="#FFFFFF" transform="translate(0,0)"/>
<path d="" fill="#FFFFFF" transform="translate(0,0)"/>
<path d="" fill="#FFFFFF" transform="translate(0,0)"/>
<path d="" fill="#FFFFFF" transform="translate(0,0)"/>
<path d="" fill="#FFFFFF" transform="translate(0,0)"/>
<path d="" fill="#FFFFFF" transform="translate(0,0)"/>
<path d="" fill="#FFFFFF" transform="translate(0,0)"/>
<path d="" fill="#FFFFFF" transform="translate(0,0)"/>
<path d="" fill="#FFFFFF" transform="translate(0,0)"/>
<path d="" fill="#FFFFFF" transform="translate(0,0)"/>
<path d="" fill="#FFFFFF" transform="translate(0,0)"/>
<path d="" fill="#FFFFFF" transform="translate(0,0)"/>
<path d="" fill="#FFFFFF" transform="translate(0,0)"/>
<path d="" fill="#FFFFFF" transform="translate(0,0)"/>
<path d="" fill="#FFFFFF" transform="translate(0,0)"/>
<path d="" fill="#FFFFFF" transform="translate(0,0)"/>
<path d="" fill="#FFFFFF" transform="translate(0,0)"/>
<path d="" fill="#FFFFFF" transform="translate(0,0)"/>
<path d="" fill="#FFFFFF" transform="translate(0,0)"/>
<path d="" fill="#FFFFFF" transform="translate(0,0)"/>
<path d="" fill="#FFFFFF" transform="translate(0,0)"/>
<path d="" fill="#FFFFFF" transform="translate(0,0)"/>
<path d="" fill="#FFFFFF" transform="translate(0,0)"/>
<path d="" fill="#FFFFFF" transform="translate(0,0)"/>
<path d="" fill="#FFFFFF" transform="translate(0,0)"/>
<path d="" fill="#FFFFFF" transform="translate(0,0)"/>
<path d="" fill="#FFFFFF" transform="translate(0,0)"/>
<path d="" fill="#FFFFFF" transform="translate(0,0)"/>
<path d="" fill="#FFFFFF" transform="translate(0,0)"/>
<path d="" fill="#FFFFFF" transform="translate(0,0)"/>
<path d="" fill="#FFFFFF" transform="translate(0,0)"/>
<path d="" fill="#FFFFFF" transform="translate(0,0)"/>
</svg>
