<?xml version="1.0" encoding="UTF-8"?>
<svg version="1.1" xmlns="http://www.w3.org/2000/svg" width="500" height="500">
<path d="M0 0 C2.8515625 2.046875 2.8515625 2.046875 5 4 C5 4.66 5 5.32 5 6 C5.66 6 6.32 6 7 6 C7 6.66 7 7.32 7 8 C7.66 8 8.32 8 9 8 C9 8.66 9 9.32 9 10 C9.56203125 10.2578125 10.1240625 10.515625 10.703125 10.78125 C13.26704579 12.14169777 15.45226365 13.72788962 17.75 15.5 C18.94882812 16.41265625 18.94882812 16.41265625 20.171875 17.34375 C20.77515625 17.8903125 21.3784375 18.436875 22 19 C22 19.66 22 20.32 22 21 C22.598125 21.28875 23.19625 21.5775 23.8125 21.875 C26 23 26 23 29 25 C29 25.66 29 26.32 29 27 C29.5775 27.268125 30.155 27.53625 30.75 27.8125 C33.05550043 29.02929189 35.02056192 30.30333879 37 32 C37 32.66 37 33.32 37 34 C37.928125 34.37125 37.928125 34.37125 38.875 34.75 C41.40358627 36.23740369 41.71839004 37.43678009 43 40 C44.32407669 40.68486725 45.65909241 41.34870203 47 42 C49.75 44.5 49.75 44.5 52 47 C52 47.66 52 48.32 52 49 C52.66 49 53.32 49 54 49 C69.62209646 67.79221109 76.75644652 89.21862667 74.55273438 113.58764648 C72.72588485 130.03114877 66.39340556 143.89907866 58 158 C57.34 158 56.68 158 56 158 C55.814375 158.66 55.62875 159.32 55.4375 160 C52.30851014 166.5300658 46.75680709 171.71586449 41 176 C40.34 176 39.68 176 39 176 C39 176.66 39 177.32 39 178 C27.9780696 186.00938968 15.31625507 192.11098489 2 195 C1.1028125 195.20496094 0.205625 195.40992188 -0.71875 195.62109375 C-26.54672526 200.76540201 -52.31724445 194.41626008 -74 180 C-74.78246094 179.48695313 -75.56492188 178.97390625 -76.37109375 178.4453125 C-77.9615863 177.36364956 -79.49121555 176.19299235 -81 175 C-81 174.34 -81 173.68 -81 173 C-81.66 173 -82.32 173 -83 173 C-83 172.34 -83 171.68 -83 171 C-83.66 171 -84.32 171 -85 171 C-85 170.34 -85 169.68 -85 169 C-85.55945313 168.79246094 -86.11890625 168.58492187 -86.6953125 168.37109375 C-89.82350747 166.51008285 -91.72793024 163.93171353 -93.875 161.0625 C-94.31553711 160.47621826 -94.75607422 159.88993652 -95.20996094 159.28588867 C-110.09163041 139.11472059 -115.08905051 114.91859288 -112.375 90.1875 C-109.69867832 73.21250866 -100.76031894 56.48820125 -88 45 C-82.80860848 41.53620732 -77.21155162 39.79318426 -71 41 C-66.65387021 42.51724596 -62.82729311 44.44847126 -59 47 C-58.68289062 45.92105469 -58.36578125 44.84210938 -58.0390625 43.73046875 C-55.36857293 35.02021702 -52.20902954 26.87164374 -47.9375 18.8125 C-47.5264502 18.03608154 -47.11540039 17.25966309 -46.69189453 16.4597168 C-44.10602015 11.7124301 -41.34216555 7.25520234 -38 3 C-37.34 3 -36.68 3 -36 3 C-36 2.34 -36 1.68 -36 1 C-23.52269057 -6.48638566 -13.0322908 -7.09494341 0 0 Z M-19 22 C-25.50066495 34.71097762 -31.43937136 46.83199743 -34.55395508 60.83447266 C-37.65225047 74.59046758 -37.65225047 74.59046758 -42.375 79.4375 C-43.674375 80.2109375 -43.674375 80.2109375 -45 81 C-45.86625 81.5775 -46.7325 82.155 -47.625 82.75 C-53.11226383 84.78231994 -58.82737819 85.28277388 -64.34765625 83.05078125 C-68.41254558 80.64223935 -71.26804968 77.88777546 -74 74 C-74.66 73.34 -75.32 72.68 -76 72 C-85.53661072 84.30222783 -87.53658157 97.8468929 -86 113 C-84.72068762 121.08966319 -82.26811789 128.98315894 -78 136 C-77.13955078 137.44632813 -77.13955078 137.44632813 -76.26171875 138.921875 C-73.75311561 143.04348504 -73.75311561 143.04348504 -71 147 C-70.34 147 -69.68 147 -69 147 C-68.7421875 147.59296875 -68.484375 148.1859375 -68.21875 148.796875 C-66.90230105 151.17660965 -65.57419218 152.50978792 -63.5 154.25 C-62.8915625 154.77078125 -62.283125 155.2915625 -61.65625 155.828125 C-60.06604179 157.19252997 -60.06604179 157.19252997 -58 157 C-58 157.66 -58 158.32 -58 159 C-57.01 159.33 -56.02 159.66 -55 160 C-55.15855469 159.36191406 -55.31710938 158.72382813 -55.48046875 158.06640625 C-58.81219774 138.40169005 -52.76662812 122.11934268 -41.67431641 106.08349609 C-30.53422751 90.70458109 -30.53422751 90.70458109 -24 89 C-17.99473659 88.22211614 -13.07339198 88.48779405 -8.0625 92.07421875 C-3.34409247 96.47985305 0.34086402 101.71441663 4 107 C4.72703125 108.04800781 5.4540625 109.09601563 6.203125 110.17578125 C15.74629295 124.80013977 19.3478447 137.59744822 18 155 C17.69080092 156.33913585 17.36385576 157.67467065 17 159 C18.65 158.34 20.3 157.68 22 157 C22 156.34 22 155.68 22 155 C22.59039062 154.73316406 23.18078125 154.46632813 23.7890625 154.19140625 C30.66987173 150.48354968 35.0205275 143.48875099 39 137 C39.4434375 136.33613281 39.886875 135.67226563 40.34375 134.98828125 C48.13283047 122.52100306 49.86105871 106.51663355 47.33984375 92.26953125 C44.11683815 79.47517568 37.00616252 70.36085728 28 61 C27.2471875 60.20722656 26.494375 59.41445312 25.71875 58.59765625 C22.94322074 55.70983422 22.94322074 55.70983422 20 53 C19.34 53 18.68 53 18 53 C18 52.34 18 51.68 18 51 C14.52001493 47.36366461 14.52001493 47.36366461 10 46 C9.505 44.515 9.505 44.515 9 43 C6.98491642 42.26676204 6.98491642 42.26676204 5 42 C5 41.34 5 40.68 5 40 C1.52001493 36.36366461 1.52001493 36.36366461 -3 35 C-3 34.34 -3 33.68 -3 33 C-6.05558423 29.97482091 -6.05558423 29.97482091 -10 29 C-10 28.34 -10 27.68 -10 27 C-13.87796088 23.06635174 -13.87796088 23.06635174 -19 22 Z " fill="#FC841F" transform="translate(269,154)"/>
<path d="M0 0 C0.33 0 0.66 0 1 0 C6.36107562 19.38753762 7.03479275 41.1684545 -1 60 C-1.99 60.495 -1.99 60.495 -3 61 C-2.67 57.7 -2.34 54.4 -2 51 C-1.34 51 -0.68 51 0 51 C-0.020625 50.030625 -0.04125 49.06125 -0.0625 48.0625 C0 45 0 45 1 44 C1.15996166 41.40846893 1.25938697 38.8404798 1.31640625 36.24609375 C1.33718735 35.47064713 1.35796844 34.6952005 1.37937927 33.89625549 C1.44495802 31.41009692 1.50379799 28.92382955 1.5625 26.4375 C1.60567733 24.75584796 1.64929136 23.07420706 1.69335938 21.39257812 C1.80064779 17.26183129 1.90189132 13.13097464 2 9 C1.34 9 0.68 9 0 9 C0 6.03 0 3.06 0 0 Z " fill="#EE9D56" transform="translate(339,231)"/>
<path d="M0 0 C1.20907714 3.48310303 0.72484423 5.36679509 -0.4375 8.8125 C-2.13768021 15.10860113 -2.27549572 21.1204689 -2.25 27.625 C-2.24669678 28.59026611 -2.24339355 29.55553223 -2.23999023 30.55004883 C-2.35038587 41.95903189 -2.35038587 41.95903189 0.5625 52.8125 C1.95870964 55.90844312 2.30280379 57.66915828 2 61 C2.66 61 3.32 61 4 61 C4.33 63.64 4.66 66.28 5 69 C2.07964762 67.53982381 1.82199061 65.26867506 0.79150391 62.32470703 C-5.7667278 42.54482126 -8.64664134 19.65145759 0 0 Z " fill="#EFB075" transform="translate(161,229)"/>
<path d="M0 0 C0.33 0.99 0.66 1.98 1 3 C1.66 3 2.32 3 3 3 C3.0544207 5.68777802 3.09387266 8.37443212 3.125 11.0625 C3.14175781 11.81466797 3.15851563 12.56683594 3.17578125 13.34179688 C3.21885537 18.31685776 2.5145801 22.26693718 1 27 C0.83071457 29.79244045 0.83071457 29.79244045 1 32 C1.33 31.34 1.66 30.68 2 30 C2.66 30.33 3.32 30.66 4 31 C3.75 32.875 3.75 32.875 3 35 C1.1875 36.125 1.1875 36.125 -1 37 C-2.33673704 37.65981536 -3.67059133 38.32554109 -5 39 C-4.70996094 38.07380859 -4.70996094 38.07380859 -4.4140625 37.12890625 C-4.15367187 36.28199219 -3.89328125 35.43507813 -3.625 34.5625 C-3.36976563 33.73878906 -3.11453125 32.91507812 -2.8515625 32.06640625 C-0.71041803 24.35632181 0.27804529 17.46060525 0.125 9.4375 C0.11597656 8.52419922 0.10695313 7.61089844 0.09765625 6.66992188 C0.07437253 4.44632681 0.0416771 2.22331323 0 0 Z " fill="#ED9649" transform="translate(316,246)"/>
<path d="M0 0 C5.9635181 -0.54991458 10.83268601 -0.56175811 15.83984375 2.96484375 C20.87121289 7.70506676 25.08445723 13.32102345 29 19 C29 19.66 29 20.32 29 21 C28.34 21 27.68 21 27 21 C26.67 20.34 26.34 19.68 26 19 C25.01 18.67 24.02 18.34 23 18 C22.6278958 16.67696283 22.29369827 15.34262065 22 14 C21.34 13.67 20.68 13.34 20 13 C20 12.01 20 11.02 20 10 C19.34 10 18.68 10 18 10 C18 9.34 18 8.68 18 8 C15.525 7.505 15.525 7.505 13 7 C12.67 6.01 12.34 5.02 12 4 C8.96474514 1.97649676 7.80573798 1.67875982 4.3125 1.375 C3.50425781 1.30023438 2.69601563 1.22546875 1.86328125 1.1484375 C1.24839844 1.09945312 0.63351563 1.05046875 0 1 C0 0.67 0 0.34 0 0 Z " fill="#F1A35D" transform="translate(245,242)"/>
<path d="M0 0 C1.93166016 0.01740234 1.93166016 0.01740234 3.90234375 0.03515625 C5.19269531 0.04417969 6.48304688 0.05320312 7.8125 0.0625 C8.81152344 0.07410156 9.81054688 0.08570313 10.83984375 0.09765625 C3.85971248 4.7510771 -5.49977886 4.29332508 -13.66015625 4.34765625 C-14.4375415 4.35684082 -15.21492676 4.36602539 -16.01586914 4.37548828 C-19.98390717 4.35384522 -22.71315378 4.02820769 -26.16015625 2.09765625 C-25.16834351 2.06007202 -25.16834351 2.06007202 -24.15649414 2.02172852 C-21.1783332 1.90612523 -18.20051705 1.78323871 -15.22265625 1.66015625 C-13.6612793 1.60118164 -13.6612793 1.60118164 -12.06835938 1.54101562 C-10.58432617 1.47817383 -10.58432617 1.47817383 -9.0703125 1.4140625 C-7.69564819 1.35907593 -7.69564819 1.35907593 -6.29321289 1.30297852 C-3.28721156 1.01362895 -3.39276238 0.10484433 0 0 Z " fill="#F2B073" transform="translate(263.16015625,346.90234375)"/>
<path d="M0 0 C0.66 0 1.32 0 2 0 C2.33 0.66 2.66 1.32 3 2 C3.66 2.33 4.32 2.66 5 3 C4.01 3.33 3.02 3.66 2 4 C2 4.66 2 5.32 2 6 C-0.09956889 7.49926962 -2.1728609 8.85646023 -4.375 10.1875 C-4.97828125 10.56841797 -5.5815625 10.94933594 -6.203125 11.34179688 C-7.76219952 12.29629694 -9.37849474 13.15590022 -11 14 C-11.66 13.67 -12.32 13.34 -13 13 C-12.34 12.01 -11.68 11.02 -11 10 C-10.01 10 -9.02 10 -8 10 C-7.938125 9.236875 -7.87625 8.47375 -7.8125 7.6875 C-7 5 -7 5 -4.5625 3.1875 C-2 2 -2 2 0 2 C0 1.34 0 0.68 0 0 Z " fill="#F59948" transform="translate(306,326)"/>
<path d="M0 0 C1.32 0.33 2.64 0.66 4 1 C4 1.66 4 2.32 4 3 C4.5775 2.814375 5.155 2.62875 5.75 2.4375 C8.20692525 1.95976454 9.64397534 2.24270636 12 3 C11.67 4.65 11.34 6.3 11 8 C13.475 8.99 13.475 8.99 16 10 C16 10.66 16 11.32 16 12 C16.99 12.33 17.98 12.66 19 13 C19.6875 15.0625 19.6875 15.0625 20 17 C19.34 17 18.68 17 18 17 C18 16.34 18 15.68 18 15 C17.4225 14.731875 16.845 14.46375 16.25 14.1875 C13.94449957 12.97070811 11.97943808 11.69666121 10 10 C10 9.34 10 8.68 10 8 C9.401875 7.71125 8.80375 7.4225 8.1875 7.125 C6 6 6 6 3 4 C3 3.34 3 2.68 3 2 C2.01 1.67 1.02 1.34 0 1 C0 0.67 0 0.34 0 0 Z " fill="#EFA868" transform="translate(256,179)"/>
<path d="M0 0 C0.99 0 1.98 0 3 0 C2.05049739 8.35562297 0.66386327 16.88695714 -4 24 C-5.33332095 21.3333581 -4.67102033 19.83319697 -4 17 C-3.34 17 -2.68 17 -2 17 C-1.93941406 15.85660156 -1.87882813 14.71320313 -1.81640625 13.53515625 C-1.73201572 12.04425695 -1.64736698 10.55337225 -1.5625 9.0625 C-1.50352539 7.93038086 -1.50352539 7.93038086 -1.44335938 6.77539062 C-1.11328125 1.11328125 -1.11328125 1.11328125 0 0 Z " fill="#F39A52" transform="translate(233,208)"/>
<path d="M0 0 C0.33 0 0.66 0 1 0 C1 5.94 1 11.88 1 18 C1.66 18 2.32 18 3 18 C3.33 17.34 3.66 16.68 4 16 C4.66 16 5.32 16 6 16 C5.33333333 19.33333333 4.66666667 22.66666667 4 26 C2.35 25.67 0.7 25.34 -1 25 C-1 24.34 -1 23.68 -1 23 C-0.34 22.67 0.32 22.34 1 22 C0.67 21.01 0.34 20.02 0 19 C-0.0806622 17.51876453 -0.10761193 16.03417796 -0.09765625 14.55078125 C-0.09443359 13.70322266 -0.09121094 12.85566406 -0.08789062 11.98242188 C-0.07951172 11.10134766 -0.07113281 10.22027344 -0.0625 9.3125 C-0.05798828 8.41982422 -0.05347656 7.52714844 -0.04882812 6.60742188 C-0.03704983 4.40488013 -0.02060164 2.20247401 0 0 Z " fill="#F39749" transform="translate(212,290)"/>
<path d="M0 0 C1.7074998 1.28062485 3.37373596 2.61767557 5 4 C5 4.66 5 5.32 5 6 C5.556875 6.226875 6.11375 6.45375 6.6875 6.6875 C9.63246684 8.35896766 11.68156544 10.55276352 14 13 C13.67 13.66 13.34 14.32 13 15 C11.68 15 10.36 15 9 15 C9 13.68 9 12.36 9 11 C8.34 11 7.68 11 7 11 C7 10.01 7 9.02 7 8 C5.02 8 3.04 8 1 8 C1.020625 7.236875 1.04125 6.47375 1.0625 5.6875 C1.12942841 2.89814214 1.12942841 2.89814214 0 0 Z " fill="#F5A053" transform="translate(307,188)"/>
<path d="M0 0 C1.98 0 3.96 0 6 0 C6.33 1.32 6.66 2.64 7 4 C5.02 3.01 3.04 2.02 1 1 C0.72414062 1.70511719 0.44828125 2.41023437 0.1640625 3.13671875 C-1.02683155 6.0659984 -2.30875136 8.93753586 -3.625 11.8125 C-4.29402344 13.27623047 -4.29402344 13.27623047 -4.9765625 14.76953125 C-5.48316406 15.87361328 -5.48316406 15.87361328 -6 17 C-7.18771723 13.57056481 -6.80226223 11.62215325 -5.5625 8.25 C-5.27503906 7.45078125 -4.98757812 6.6515625 -4.69140625 5.828125 C-4.46324219 5.22484375 -4.23507813 4.6215625 -4 4 C-3.34 4 -2.68 4 -2 4 C-1.34 2.68 -0.68 1.36 0 0 Z " fill="#F2A460" transform="translate(249,175)"/>
<path d="M0 0 C0.33 0 0.66 0 1 0 C1 2.97 1 5.94 1 9 C0.01 9.495 0.01 9.495 -1 10 C-1.80835332 12.55830501 -2.40779912 15.13909988 -3.0234375 17.75 C-3.34570312 18.4925 -3.66796875 19.235 -4 20 C-6.1015625 20.8125 -6.1015625 20.8125 -8 21 C-8.33 19.68 -8.66 18.36 -9 17 C-8.01 17.33 -7.02 17.66 -6 18 C-4.02 12.06 -2.04 6.12 0 0 Z " fill="#F2A764" transform="translate(216,183)"/>
<path d="M0 0 C-3.38145842 2.25430561 -5.90753754 2.76145842 -9.875 3.5625 C-11.69644531 3.93568359 -11.69644531 3.93568359 -13.5546875 4.31640625 C-14.69164062 4.54199219 -15.82859375 4.76757812 -17 5 C-17.97195312 5.19464844 -18.94390625 5.38929688 -19.9453125 5.58984375 C-20.62335938 5.72519531 -21.30140625 5.86054688 -22 6 C-15.98770651 -0.54386822 -8.29679761 -0.41178959 0 0 Z " fill="#F2A965" transform="translate(257,149)"/>
<path d="M0 0 C0.99 0.33 1.98 0.66 3 1 C2.2575 1.886875 1.515 2.77375 0.75 3.6875 C-2.99515738 8.8517626 -4.36224499 14.9156029 -6 21 C-6.33 21 -6.66 21 -7 21 C-7.25328119 15.93437617 -6.33583899 11.84241633 -5 7 C-4.34 7 -3.68 7 -3 7 C-3 6.01 -3 5.02 -3 4 C-2.34 4 -1.68 4 -1 4 C-0.67 2.68 -0.34 1.36 0 0 Z " fill="#F1A055" transform="translate(190,227)"/>
<path d="M0 0 C0.66 0 1.32 0 2 0 C2 0.99 2 1.98 2 3 C2.99 3.33 3.98 3.66 5 4 C3 4.66666667 1 5.33333333 -1 6 C-1.33 6.99 -1.66 7.98 -2 9 C-4.5625 10.1875 -4.5625 10.1875 -7 11 C-5.7580393 7.56072421 -4.44259716 4.74792181 -2 2 C-1.34 2 -0.68 2 0 2 C0 1.34 0 0.68 0 0 Z " fill="#F49446" transform="translate(233,155)"/>
<path d="M0 0 C4.29 0 8.58 0 13 0 C10.82813579 2.17186421 9.50023469 2.6793248 6.625 3.625 C5.85414063 3.88539063 5.08328125 4.14578125 4.2890625 4.4140625 C2 5 2 5 -2 5 C-1.34 3.35 -0.68 1.7 0 0 Z " fill="#F48C34" transform="translate(276,342)"/>
<path d="M0 0 C0 3 0 3 -1 5 C-1.66 5 -2.32 5 -3 5 C-3.4021875 6.175625 -3.4021875 6.175625 -3.8125 7.375 C-5 10 -5 10 -8 12 C-7.67 10.35 -7.34 8.7 -7 7 C-6.34 7 -5.68 7 -5 7 C-5.33 5.02 -5.66 3.04 -6 1 C-4.02 0.67 -2.04 0.34 0 0 Z " fill="#F3A460" transform="translate(328,307)"/>
<path d="M0 0 C0.33 1.32 0.66 2.64 1 4 C0.34 4 -0.32 4 -1 4 C-1 4.66 -1 5.32 -1 6 C-0.34 6 0.32 6 1 6 C1 6.66 1 7.32 1 8 C0.01 8 -0.98 8 -2 8 C-2 8.99 -2 9.98 -2 11 C-2.99 10.67 -3.98 10.34 -5 10 C-5 9.34 -5 8.68 -5 8 C-5.66 7.67 -6.32 7.34 -7 7 C-4.69 4.69 -2.38 2.38 0 0 Z " fill="#F98423" transform="translate(301,300)"/>
<path d="M0 0 C0.33 0 0.66 0 1 0 C1.21196588 4.6561838 0.51535218 8.37250673 -0.875 12.8125 C-1.22304688 13.95332031 -1.57109375 15.09414063 -1.9296875 16.26953125 C-3 19 -3 19 -5 20 C-4.67 16.7 -4.34 13.4 -4 10 C-3.34 10 -2.68 10 -2 10 C-2.04125 9.0925 -2.0825 8.185 -2.125 7.25 C-2.00468444 4.1217954 -1.6085292 2.61385994 0 0 Z " fill="#F29B50" transform="translate(341,272)"/>
<path d="M0 0 C0.66 0 1.32 0 2 0 C2.33 0.99 2.66 1.98 3 3 C3.33 2.34 3.66 1.68 4 1 C4.66 1.33 5.32 1.66 6 2 C5.75 3.875 5.75 3.875 5 6 C3.1875 7.125 3.1875 7.125 1 8 C-0.98 8.99 -0.98 8.99 -3 10 C-2.01 6.7 -1.02 3.4 0 0 Z " fill="#F89440" transform="translate(314,275)"/>
<path d="M0 0 C3.43927579 1.2419607 6.25207819 2.55740284 9 5 C9 5.66 9 6.32 9 7 C9.66 7 10.32 7 11 7 C11 7.66 11 8.32 11 9 C11.66 9 12.32 9 13 9 C12.67 9.66 12.34 10.32 12 11 C11.01 10.67 10.02 10.34 9 10 C9 9.34 9 8.68 9 8 C8.01 7.67 7.02 7.34 6 7 C6 6.34 6 5.68 6 5 C5.01 5 4.02 5 3 5 C1.3125 3.625 1.3125 3.625 0 2 C0 1.34 0 0.68 0 0 Z " fill="#F0AA6C" transform="translate(265,153)"/>
<path d="M0 0 C0.9599526 2.57361524 1.10863264 3.70485652 0.14453125 6.32421875 C-0.29503906 7.10410156 -0.73460937 7.88398438 -1.1875 8.6875 C-1.61417969 9.47511719 -2.04085938 10.26273437 -2.48046875 11.07421875 C-4.23985619 13.30398227 -5.23257781 13.6503685 -8 14 C-6.46162154 10.80375738 -4.71133468 7.78394426 -2.875 4.75 C-2.33617187 3.85796875 -1.79734375 2.9659375 -1.2421875 2.046875 C-0.62730469 1.03367187 -0.62730469 1.03367187 0 0 Z " fill="#F1A966" transform="translate(310,286)"/>
<path d="M0 0 C2.31 0.33 4.62 0.66 7 1 C7.99 4.3 8.98 7.6 10 11 C6.40365256 7.50640535 3.16548033 3.88901869 0 0 Z " fill="#F49D51" transform="translate(296,214)"/>
<path d="M0 0 C0.33 1.32 0.66 2.64 1 4 C0.34 4 -0.32 4 -1 4 C-1.103125 4.680625 -1.20625 5.36125 -1.3125 6.0625 C-2.14725019 9.62915989 -3.49472754 12.66222194 -5 16 C-5.66 16 -6.32 16 -7 16 C-6.28028381 12.24654344 -4.66887798 9.13908031 -2.9375 5.75 C-2.11572266 4.13351563 -2.11572266 4.13351563 -1.27734375 2.484375 C-0.64505859 1.25460938 -0.64505859 1.25460938 0 0 Z " fill="#EEA05A" transform="translate(225,166)"/>
<path d="M0 0 C3.00617269 3.00617269 2.59585316 5.82381598 3 10 C3.66 10 4.32 10 5 10 C5.33 12.64 5.66 15.28 6 18 C2.52385629 16.26192814 2.05559935 12.32620482 0.8203125 8.8125 C-0.0683335 5.76571372 -0.34166418 3.16039364 0 0 Z " fill="#EFA259" transform="translate(160,280)"/>
<path d="M0 0 C1.32 0.33 2.64 0.66 4 1 C4 1.66 4 2.32 4 3 C4.5775 2.814375 5.155 2.62875 5.75 2.4375 C8.20692525 1.95976454 9.64397534 2.24270636 12 3 C11.67 4.32 11.34 5.64 11 7 C5.25 5.125 5.25 5.125 3 4 C3 3.34 3 2.68 3 2 C2.01 1.67 1.02 1.34 0 1 C0 0.67 0 0.34 0 0 Z " fill="#F89847" transform="translate(256,179)"/>
<path d="M0 0 C4.62 0 9.24 0 14 0 C10.71508627 2.18994248 9.16904361 2.35277339 5.3125 2.625 C3.82169922 2.73714844 3.82169922 2.73714844 2.30078125 2.8515625 C1.16189453 2.92503906 1.16189453 2.92503906 0 3 C0 2.01 0 1.02 0 0 Z " fill="#F0964B" transform="translate(260,347)"/>
<path d="M0 0 C1.27617187 0.02320313 2.55234375 0.04640625 3.8671875 0.0703125 C5.78917969 0.09738281 5.78917969 0.09738281 7.75 0.125 C9.23113281 0.15980469 9.23113281 0.15980469 10.7421875 0.1953125 C10.4121875 1.1853125 10.0821875 2.1753125 9.7421875 3.1953125 C7.72395833 2.90234375 5.70572917 2.609375 3.6875 2.31640625 C1.66078083 2.0268828 1.66078083 2.0268828 -0.2578125 3.1953125 C-1.93435979 2.91588795 -3.60389404 2.58703003 -5.2578125 2.1953125 C-3.2578125 0.1953125 -3.2578125 0.1953125 0 0 Z " fill="#F68933" transform="translate(188.2578125,196.8046875)"/>
<path d="M0 0 C2.88437779 1.29299694 4.87219421 2.65941363 7 5 C5.6078125 4.9071875 5.6078125 4.9071875 4.1875 4.8125 C1.01604897 4.69105736 1.01604897 4.69105736 -0.875 6.5 C-1.24625 6.995 -1.6175 7.49 -2 8 C-2.66 7.67 -3.32 7.34 -4 7 C-3.525625 6.401875 -3.05125 5.80375 -2.5625 5.1875 C-0.83534256 2.99617076 -0.83534256 2.99617076 0 0 Z " fill="#F79948" transform="translate(278,164)"/>
<path d="M0 0 C0.82638376 2.89234315 1 4.88742431 1 8 C-0.65 8.33 -2.3 8.66 -4 9 C-2.94124926 5.59687262 -1.99097846 2.98646769 0 0 Z " fill="#F19950" transform="translate(221,269)"/>
<path d="M0 0 C3.63 0 7.26 0 11 0 C11 0.66 11 1.32 11 2 C11.99 2.33 12.98 2.66 14 3 C4.58997722 2.03644647 4.58997722 2.03644647 0 1 C0 0.67 0 0.34 0 0 Z " fill="#ED9B4F" transform="translate(221,346)"/>
<path d="M0 0 C1.6415049 3.2830098 0.51888624 6.42545033 0 10 C-0.99 10 -1.98 10 -3 10 C-2.25 3.375 -2.25 3.375 0 0 Z " fill="#F48627" transform="translate(183,240)"/>
<path d="M0 0 C1.7074998 1.28062485 3.37373596 2.61767557 5 4 C5 4.66 5 5.32 5 6 C5.99 6.33 6.98 6.66 8 7 C4.86650268 8.04449911 4.01031744 7.93423645 1 7 C0.67 4.69 0.34 2.38 0 0 Z " fill="#F5A75D" transform="translate(307,188)"/>
<path d="M0 0 C2.03833424 1.2739589 4.03852126 2.61061923 6 4 C6 4.66 6 5.32 6 6 C6.99 6.33 7.98 6.66 9 7 C6 8 6 8 3.9375 7.4375 C1.20992266 5.41381358 0.8378558 3.21178058 0 0 Z " fill="#F3A762" transform="translate(285,169)"/>
<path d="M0 0 C0.99 0 1.98 0 3 0 C2.6875 2.375 2.6875 2.375 2 5 C1.01 5.66 0.02 6.32 -1 7 C-2 4 -2 4 -1.0625 1.8125 C-0.5365625 0.9153125 -0.5365625 0.9153125 0 0 Z " fill="#F5913B" transform="translate(317,316)"/>
<path d="M0 0 C0.33 0.99 0.66 1.98 1 3 C0.2884375 3.61875 0.2884375 3.61875 -0.4375 4.25 C-2.16266518 6.182185 -2.56584875 7.48192275 -3 10 C-4.32 10.33 -5.64 10.66 -7 11 C-5.22054913 6.95579349 -2.60470327 3.53921513 0 0 Z " fill="#F1AF72" transform="translate(234,250)"/>
<path d="M0 0 C0.99 0 1.98 0 3 0 C4.01866229 1.65532623 5.01810813 3.32260138 6 5 C6.99 5.33 7.98 5.66 9 6 C9 6.99 9 7.98 9 9 C8.34 9 7.68 9 7 9 C7 8.34 7 7.68 7 7 C6.401875 6.773125 5.80375 6.54625 5.1875 6.3125 C2.43648112 4.66188867 1.47515363 2.8027919 0 0 Z " fill="#F1A668" transform="translate(177,316)"/>
<path d="M0 0 C0.33 0.99 0.66 1.98 1 3 C1.66 3.33 2.32 3.66 3 4 C2.34 4 1.68 4 1 4 C0.67 5.32 0.34 6.64 0 8 C-3 4.25 -3 4.25 -3 2 C-2.01 2 -1.02 2 0 2 C0 1.34 0 0.68 0 0 Z " fill="#F59E4E" transform="translate(172,302)"/>
<path d="M0 0 C0.33 0 0.66 0 1 0 C1 2.64 1 5.28 1 8 C-0.98 8.99 -0.98 8.99 -3 10 C-2.01 6.7 -1.02 3.4 0 0 Z " fill="#F5A660" transform="translate(216,278)"/>
<path d="M0 0 C2.4375 0.75 2.4375 0.75 5 2 C5.8125 4.125 5.8125 4.125 6 6 C5.01 6 4.02 6 3 6 C0 2.66666667 0 2.66666667 0 0 Z " fill="#F09D54" transform="translate(194,226)"/>
<path d="M0 0 C-3.125 6.25 -3.125 6.25 -8 8 C-6.48291727 4.46014029 -4.24676932 0 0 0 Z " fill="#F2AC73" transform="translate(183,199)"/>
<path d="M0 0 C0.33 0.66 0.66 1.32 1 2 C2.32407669 2.68486725 3.65909241 3.34870203 5 4 C6.35113205 4.97581759 7.68946944 5.97029741 9 7 C8.67 7.66 8.34 8.32 8 9 C6 9 6 9 4 7.0625 C3.34 6.381875 2.68 5.70125 2 5 C1.34 4.67 0.68 4.34 0 4 C0 2.68 0 1.36 0 0 Z " fill="#F2AB6B" transform="translate(297,179)"/>
<path d="M0 0 C2.475 0.495 2.475 0.495 5 1 C5 4 5 4 4 7 C0 2.25 0 2.25 0 0 Z " fill="#F3A35C" transform="translate(306,225)"/>
<path d="M0 0 C0.66 0 1.32 0 2 0 C0.14285714 8.71428571 0.14285714 8.71428571 -3 11 C-2.67 8.69 -2.34 6.38 -2 4 C-1.34 4 -0.68 4 0 4 C0 2.68 0 1.36 0 0 Z " fill="#F2A868" transform="translate(231,221)"/>
<path d="M0 0 C0.33 0 0.66 0 1 0 C2.45184478 4.53701494 3.23509196 8.18061476 3 13 C2.67 11.68 2.34 10.36 2 9 C1.34 9 0.68 9 0 9 C0 6.03 0 3.06 0 0 Z " fill="#F3AB6F" transform="translate(339,231)"/>
<path d="M0 0 C0.33 1.32 0.66 2.64 1 4 C-3.625 7 -3.625 7 -7 7 C-4.69 4.69 -2.38 2.38 0 0 Z " fill="#EFAB6F" transform="translate(301,300)"/>
<path d="M0 0 C0.99 0.33 1.98 0.66 3 1 C0.525 4.465 0.525 4.465 -2 8 C-2.33 6.68 -2.66 5.36 -3 4 C-2.34 4 -1.68 4 -1 4 C-0.67 2.68 -0.34 1.36 0 0 Z " fill="#F2A667" transform="translate(190,227)"/>
<path d="M0 0 C-6.625 3 -6.625 3 -10 3 C-10 2.34 -10 1.68 -10 1 C-3.375 -1.125 -3.375 -1.125 0 0 Z " fill="#F2B478" transform="translate(289,343)"/>
<path d="M0 0 C1.37562854 1.28965176 2.70766393 2.62689293 4 4 C4 4.66 4 5.32 4 6 C2.68 6.33 1.36 6.66 0 7 C0 4.69 0 2.38 0 0 Z " fill="#F79F52" transform="translate(194,295)"/>
<path d="M0 0 C2.79872437 2.52788007 4.45773019 4.20411134 5 8 C4.01 7.67 3.02 7.34 2 7 C2 6.01 2 5.02 2 4 C1.34 4 0.68 4 0 4 C0 2.68 0 1.36 0 0 Z " fill="#F0B271" transform="translate(189,287)"/>
<path d="M0 0 C0.66 0.33 1.32 0.66 2 1 C1.3125 2.9375 1.3125 2.9375 0 5 C-2.625 5.75 -2.625 5.75 -5 6 C-3.35 4.02 -1.7 2.04 0 0 Z " fill="#F4AC6B" transform="translate(240,244)"/>
<path d="M0 0 C2 1 2 1 2 1 Z " fill="#FFFFFF" transform="translate(265,470)"/>
<path d="" fill="#FFFFFF" transform="translate(0,0)"/>
<path d="" fill="#FFFFFF" transform="translate(0,0)"/>
<path d="" fill="#FFFFFF" transform="translate(0,0)"/>
<path d="" fill="#FFFFFF" transform="translate(0,0)"/>
<path d="" fill="#FFFFFF" transform="translate(0,0)"/>
<path d="" fill="#FFFFFF" transform="translate(0,0)"/>
<path d="" fill="#FFFFFF" transform="translate(0,0)"/>
<path d="" fill="#FFFFFF" transform="translate(0,0)"/>
<path d="" fill="#FFFFFF" transform="translate(0,0)"/>
<path d="" fill="#FFFFFF" transform="translate(0,0)"/>
<path d="" fill="#FFFFFF" transform="translate(0,0)"/>
<path d="" fill="#FFFFFF" transform="translate(0,0)"/>
<path d="" fill="#FFFFFF" transform="translate(0,0)"/>
<path d="" fill="#FFFFFF" transform="translate(0,0)"/>
<path d="" fill="#FFFFFF" transform="translate(0,0)"/>
<path d="" fill="#FFFFFF" transform="translate(0,0)"/>
<path d="" fill="#FFFFFF" transform="translate(0,0)"/>
<path d="" fill="#FFFFFF" transform="translate(0,0)"/>
<path d="" fill="#FFFFFF" transform="translate(0,0)"/>
<path d="" fill="#FFFFFF" transform="translate(0,0)"/>
<path d="" fill="#FFFFFF" transform="translate(0,0)"/>
<path d="" fill="#FFFFFF" transform="translate(0,0)"/>
<path d="" fill="#FFFFFF" transform="translate(0,0)"/>
<path d="" fill="#FFFFFF" transform="translate(0,0)"/>
<path d="" fill="#FFFFFF" transform="translate(0,0)"/>
<path d="" fill="#FFFFFF" transform="translate(0,0)"/>
<path d="" fill="#FFFFFF" transform="translate(0,0)"/>
<path d="" fill="#FFFFFF" transform="translate(0,0)"/>
<path d="" fill="#FFFFFF" transform="translate(0,0)"/>
<path d="" fill="#FFFFFF" transform="translate(0,0)"/>
<path d="" fill="#FFFFFF" transform="translate(0,0)"/>
<path d="" fill="#FFFFFF" transform="translate(0,0)"/>
<path d="" fill="#FFFFFF" transform="translate(0,0)"/>
<path d="" fill="#FFFFFF" transform="translate(0,0)"/>
<path d="" fill="#FFFFFF" transform="translate(0,0)"/>
<path d="" fill="#FFFFFF" transform="translate(0,0)"/>
<path d="" fill="#FFFFFF" transform="translate(0,0)"/>
<path d="" fill="#FFFFFF" transform="translate(0,0)"/>
<path d="" fill="#FFFFFF" transform="translate(0,0)"/>
<path d="" fill="#FFFFFF" transform="translate(0,0)"/>
<path d="" fill="#FFFFFF" transform="translate(0,0)"/>
<path d="" fill="#FFFFFF" transform="translate(0,0)"/>
<path d="" fill="#FFFFFF" transform="translate(0,0)"/>
<path d="" fill="#FFFFFF" transform="translate(0,0)"/>
<path d="" fill="#FFFFFF" transform="translate(0,0)"/>
<path d="" fill="#FFFFFF" transform="translate(0,0)"/>
<path d="" fill="#FFFFFF" transform="translate(0,0)"/>
<path d="" fill="#FFFFFF" transform="translate(0,0)"/>
<path d="" fill="#FFFFFF" transform="translate(0,0)"/>
<path d="" fill="#FFFFFF" transform="translate(0,0)"/>
<path d="" fill="#FFFFFF" transform="translate(0,0)"/>
<path d="" fill="#FFFFFF" transform="translate(0,0)"/>
<path d="" fill="#FFFFFF" transform="translate(0,0)"/>
<path d="" fill="#FFFFFF" transform="translate(0,0)"/>
<path d="" fill="#FFFFFF" transform="translate(0,0)"/>
<path d="" fill="#FFFFFF" transform="translate(0,0)"/>
<path d="" fill="#FFFFFF" transform="translate(0,0)"/>
<path d="" fill="#FFFFFF" transform="translate(0,0)"/>
<path d="" fill="#FFFFFF" transform="translate(0,0)"/>
<path d="" fill="#FFFFFF" transform="translate(0,0)"/>
<path d="" fill="#FFFFFF" transform="translate(0,0)"/>
<path d="" fill="#FFFFFF" transform="translate(0,0)"/>
<path d="" fill="#FFFFFF" transform="translate(0,0)"/>
<path d="" fill="#FFFFFF" transform="translate(0,0)"/>
<path d="" fill="#FFFFFF" transform="translate(0,0)"/>
<path d="" fill="#FFFFFF" transform="translate(0,0)"/>
<path d="" fill="#FFFFFF" transform="translate(0,0)"/>
<path d="" fill="#FFFFFF" transform="translate(0,0)"/>
<path d="" fill="#FFFFFF" transform="translate(0,0)"/>
<path d="" fill="#FFFFFF" transform="translate(0,0)"/>
<path d="" fill="#FFFFFF" transform="translate(0,0)"/>
<path d="" fill="#FFFFFF" transform="translate(0,0)"/>
<path d="" fill="#FFFFFF" transform="translate(0,0)"/>
<path d="" fill="#FFFFFF" transform="translate(0,0)"/>
<path d="" fill="#FFFFFF" transform="translate(0,0)"/>
<path d="" fill="#FFFFFF" transform="translate(0,0)"/>
<path d="" fill="#FFFFFF" transform="translate(0,0)"/>
<path d="" fill="#FFFFFF" transform="translate(0,0)"/>
<path d="" fill="#FFFFFF" transform="translate(0,0)"/>
<path d="" fill="#FFFFFF" transform="translate(0,0)"/>
<path d="" fill="#FFFFFF" transform="translate(0,0)"/>
<path d="" fill="#FFFFFF" transform="translate(0,0)"/>
<path d="" fill="#FFFFFF" transform="translate(0,0)"/>
<path d="" fill="#FFFFFF" transform="translate(0,0)"/>
<path d="" fill="#FFFFFF" transform="translate(0,0)"/>
</svg>
