<?xml version="1.0" encoding="UTF-8"?>
<svg version="1.1" xmlns="http://www.w3.org/2000/svg" width="500" height="500">
<path d="M0 0 C8.6359341 6.03213488 13.73324795 14.33742433 15.70703125 24.62890625 C15.89582971 27.30044644 16.01141825 29.86401129 16.0078125 32.53125 C16.01209763 33.25325089 16.01638275 33.97525177 16.02079773 34.71913147 C16.02649702 36.23421183 16.02707411 37.74931952 16.02270508 39.2644043 C16.01954337 41.55761211 16.04306388 43.84952895 16.06835938 46.14257812 C16.10134004 53.71547326 15.97109439 60.64052793 12.70703125 67.62890625 C12.15982422 68.91667969 12.15982422 68.91667969 11.6015625 70.23046875 C6.80227143 79.2053163 -0.01885467 84.2914912 -9.48046875 87.81640625 C-20.24114817 90.1096658 -30.70589113 88.41281299 -40.10546875 82.50390625 C-45.64066188 78.135445 -50.20257755 71.33589943 -52.29296875 64.62890625 C-52.59757497 61.27888604 -52.59703288 57.94028115 -52.59375 54.578125 C-52.59803513 53.6053511 -52.60232025 52.63257721 -52.60673523 51.63032532 C-52.61246878 49.57525407 -52.61298598 47.52016254 -52.60864258 45.46508789 C-52.60549021 42.33769646 -52.62892795 39.21125844 -52.65429688 36.08398438 C-52.65657088 34.08203244 -52.6572729 32.08007797 -52.65625 30.078125 C-52.66545975 29.15078049 -52.67466949 28.22343597 -52.68415833 27.26799011 C-52.64266187 21.3774726 -51.67530414 17.02626797 -49.29296875 11.62890625 C-48.63296875 11.62890625 -47.97296875 11.62890625 -47.29296875 11.62890625 C-47.29296875 10.63890625 -47.29296875 9.64890625 -47.29296875 8.62890625 C-46.63296875 8.62890625 -45.97296875 8.62890625 -45.29296875 8.62890625 C-45.06609375 8.05140625 -44.83921875 7.47390625 -44.60546875 6.87890625 C-41.61475039 1.7519605 -35.10461561 -2.05762085 -29.55859375 -3.96875 C-19.55752203 -5.74480239 -8.79095647 -5.25660259 0 0 Z M-32.29296875 20.62890625 C-36.44888587 26.33411514 -35.85114797 32.42505285 -35.84887695 39.18359375 C-35.85541165 41.35988941 -35.90984575 43.53154759 -35.96679688 45.70703125 C-36.05706342 53.09849319 -35.67056187 58.86506985 -30.97631836 64.93847656 C-28.27372752 67.65243435 -26.33018038 69.46855738 -22.48828125 70.0625 C-16.27905128 70.07039978 -12.07708155 70.04501037 -7.29296875 65.62890625 C-1.22148444 59.34058321 -1.95659393 50.32316975 -1.98046875 42.19140625 C-1.96435547 41.09763672 -1.94824219 40.00386719 -1.93164062 38.87695312 C-1.92772392 32.37130424 -2.5535209 27.54104796 -5.29296875 21.62890625 C-5.60878906 20.8503125 -5.92460937 20.07171875 -6.25 19.26953125 C-8.29846839 16.04722142 -11.7986232 14.85699146 -15.29296875 13.62890625 C-23.05212075 12.83983994 -27.19103878 14.85566971 -32.29296875 20.62890625 Z " fill="#1EEE3F" transform="translate(302.29296875,262.37109375)"/>
<path d="M0 0 C6.98197593 4.38911686 11.83455752 12.13086936 13.93359375 19.97265625 C14.227818 23.29520804 14.23771599 26.60343044 14.234375 29.9375 C14.23866013 30.88903458 14.24294525 31.84056915 14.24736023 32.82093811 C14.25308613 34.82715054 14.25361666 36.83338372 14.24926758 38.83959961 C14.24610768 41.89668427 14.26958859 44.95280041 14.29492188 48.00976562 C14.29719516 49.96484254 14.29789823 51.91992203 14.296875 53.875 C14.30608475 54.78249496 14.31529449 55.68998993 14.32478333 56.62498474 C14.25496643 66.27591429 10.52512062 72.9739308 3.93359375 79.97265625 C-5.4245125 87.74352187 -15.14353404 88.97247782 -27.06640625 87.97265625 C-36.00997472 85.86264546 -43.97311722 80.52866922 -49.0390625 72.8359375 C-50.77713391 69.68361788 -52.01733978 66.41047543 -53.06640625 62.97265625 C-53.23841553 62.43157227 -53.4104248 61.89048828 -53.58764648 61.33300781 C-54.26287788 58.00402406 -54.26950521 54.69611509 -54.3046875 51.3125 C-54.31275925 50.56738663 -54.32083099 49.82227325 -54.32914734 49.05458069 C-54.34295619 47.4769216 -54.35369261 45.89923304 -54.36157227 44.3215332 C-54.37303882 42.7263905 -54.39340546 41.13128454 -54.4230957 39.53637695 C-54.67155411 26.17098009 -53.23166314 14.49887937 -44.06640625 3.97265625 C-31.09043459 -7.17812379 -14.76326921 -7.33977278 0 0 Z M-32.06640625 18.97265625 C-36.49752878 26.21015638 -36.27843279 32.95393637 -36.31640625 41.22265625 C-36.33703125 42.32996094 -36.35765625 43.43726563 -36.37890625 44.578125 C-36.41011917 51.14064045 -35.81836155 56.0019583 -33.06640625 61.97265625 C-32.75703125 62.73578125 -32.44765625 63.49890625 -32.12890625 64.28515625 C-30.40528633 67.02267024 -28.25906691 68.52026772 -25.25390625 69.66015625 C-20.14863107 70.38948128 -15.6484788 70.50485424 -11.06640625 67.97265625 C-6.65690457 64.08809525 -3.40172491 60.55977591 -2.63061523 54.61035156 C-2.56986073 51.21245436 -2.5093561 47.8164066 -2.51049805 44.41796875 C-2.50396335 42.24167309 -2.44952925 40.07001491 -2.39257812 37.89453125 C-2.30231158 30.50306931 -2.68881313 24.73649265 -7.38305664 18.66308594 C-11.12497603 14.90542824 -13.50565406 13.52783727 -18.87890625 13.47265625 C-24.58358406 13.62570858 -28.23115459 14.66502755 -32.06640625 18.97265625 Z " fill="#1EEE40" transform="translate(236.06640625,154.02734375)"/>
<path d="M0 0 C2.69990662 1.79993774 4.5418865 3.083773 6 6 C6.11898577 8.56673517 6.17831915 11.10719849 6.19287109 13.67504883 C6.20513733 14.86312889 6.20513733 14.86312889 6.21765137 16.07521057 C6.24251118 18.7024764 6.25902265 21.32968819 6.2734375 23.95703125 C6.27876118 24.85362646 6.28408485 25.75022167 6.28956985 26.67398643 C6.31630374 31.41944906 6.33567803 36.16488535 6.35009766 40.91040039 C6.36674802 45.81342567 6.41152808 50.71577911 6.4624691 55.6185503 C6.49611507 59.3872302 6.50767214 63.15575009 6.51332474 66.92456627 C6.52004436 68.73190128 6.53528494 70.5392255 6.55921555 72.34641457 C6.59081487 74.87709017 6.59091237 77.40594672 6.58349609 79.93676758 C6.59990143 80.68240967 6.61630676 81.42805176 6.63320923 82.19628906 C6.58556319 86.17101237 6.13346198 87.83577821 3.59243774 90.96244812 C1.08026454 92.93691529 0.11940888 93.68789131 -3 93.625 C-3.9590625 93.64433594 -3.9590625 93.64433594 -4.9375 93.6640625 C-8.24944299 92.59771722 -10.27095865 90.96027175 -12 88 C-12.77120408 83.83580344 -12.72114698 79.70606064 -12.70703125 75.48046875 C-12.72215256 74.26676102 -12.73727386 73.05305328 -12.75285339 71.80256653 C-12.79579896 67.9306897 -12.80457572 64.05959149 -12.8125 60.1875 C-12.83563873 57.56052607 -12.86100275 54.93357074 -12.88867188 52.30664062 C-12.95159245 45.87108642 -12.986472 39.43583733 -13 33 C-13.76747559 33.81202881 -14.53495117 34.62405762 -15.32568359 35.46069336 C-18.39354383 38.37367623 -19.49148397 38.65929032 -23.625 38.5625 C-25.03652344 38.56443359 -25.03652344 38.56443359 -26.4765625 38.56640625 C-29 38 -29 38 -30.8046875 36.203125 C-32.63363089 32.8321313 -32.74298742 29.68053953 -32 26 C-29.8499673 21.77672148 -26.57599419 18.08275361 -23 15 C-22.34 15 -21.68 15 -21 15 C-20.731875 14.401875 -20.46375 13.80375 -20.1875 13.1875 C-19.00082594 11.00152146 -17.90400887 9.58667406 -16 8 C-15.34 8 -14.68 8 -14 8 C-14 7.34 -14 6.68 -14 6 C-6.54803964 -0.64196467 -6.54803964 -0.64196467 0 0 Z " fill="#20EC41" transform="translate(303,149)"/>
<path d="M0 0 C0.78246094 -0.01417969 1.56492188 -0.02835937 2.37109375 -0.04296875 C4.5625 0.1875 4.5625 0.1875 7.5625 2.1875 C10.12114862 5.7786285 9.8516233 9.66808441 9.8371582 13.90600586 C9.84226913 14.67884415 9.84738007 15.45168243 9.85264587 16.24794006 C9.86653171 18.79948701 9.8655859 21.35076354 9.86328125 23.90234375 C9.8671687 25.67826945 9.87150347 27.45419423 9.87626648 29.2301178 C9.88372649 32.95153823 9.88343897 36.6728638 9.87817383 40.39428711 C9.87237906 45.16033485 9.88931136 49.925994 9.9125185 54.6919775 C9.92725887 58.35944383 9.92812714 62.02681663 9.92500877 65.69430733 C9.92552182 67.45135836 9.93075644 69.20841465 9.94082069 70.96543694 C9.95317397 73.42374717 9.94640048 75.88130124 9.93481445 78.33959961 C9.94628006 79.42529739 9.94628006 79.42529739 9.95797729 80.53292847 C9.91226077 84.92726115 9.22320539 87.67237508 6.5625 91.1875 C3.8884797 93.28851595 2.51965315 93.18596976 -0.9375 93.0625 C-4.84922015 92.08456996 -5.97623997 91.29901661 -8.4375 88.1875 C-8.95648193 85.58050537 -8.95648193 85.58050537 -8.98339844 82.59277344 C-9.00311707 81.47191345 -9.02283569 80.35105347 -9.04315186 79.19622803 C-9.04438049 77.99194153 -9.04560913 76.78765503 -9.046875 75.546875 C-9.06341125 74.30955627 -9.07994751 73.07223755 -9.09698486 71.79742432 C-9.13732385 68.51598469 -9.16064761 65.2350037 -9.17572021 61.95336914 C-9.19530671 58.60154159 -9.23760897 55.25008686 -9.27734375 51.8984375 C-9.35134629 45.32819517 -9.4029191 38.75806166 -9.4375 32.1875 C-9.90075684 32.61337402 -10.36401367 33.03924805 -10.84130859 33.47802734 C-11.45828613 34.0292627 -12.07526367 34.58049805 -12.7109375 35.1484375 C-13.31856934 35.69806152 -13.92620117 36.24768555 -14.55224609 36.81396484 C-16.4375 38.1875 -16.4375 38.1875 -20.0625 38.8125 C-24.18298084 38.04944799 -25.82835668 37.50822786 -28.4375 34.1875 C-29.37756043 30.64033863 -29.37677292 27.73645735 -28.4375 24.1875 C-26.16002083 21.02859259 -23.41935012 18.66866633 -20.4375 16.1875 C-19.550625 15.300625 -18.66375 14.41375 -17.75 13.5 C-16.13538306 11.88538306 -14.50942593 10.28206188 -12.875 8.6875 C-10.39092419 6.22359592 -10.39092419 6.22359592 -8.25 3.4375 C-5.63672951 0.19344008 -4.00888246 0.03291365 0 0 Z " fill="#1DEE3F" transform="translate(216.4375,257.8125)"/>
<path d="M0 0 C0.66 0.33 1.32 0.66 2 1 C2.06952787 11.34430764 2.12282548 21.68855963 2.15543652 32.0330534 C2.17108864 36.83649134 2.1923187 41.63976934 2.22631836 46.44311523 C2.25892789 51.07911055 2.27685643 55.71495208 2.28463173 60.35105324 C2.29017237 62.11928541 2.30099191 63.88750923 2.31719017 65.65567589 C2.33898578 68.1335096 2.34196606 70.61070881 2.34057617 73.08862305 C2.351362 73.81870575 2.36214783 74.54878845 2.3732605 75.30099487 C2.34647639 79.71742858 1.68052195 82.46981463 -1 86 C-3.6740203 88.10101595 -5.04284685 87.99846976 -8.5 87.875 C-12.41172015 86.89706996 -13.53873997 86.11151661 -16 83 C-16.51898193 80.39300537 -16.51898193 80.39300537 -16.54589844 77.40527344 C-16.56561707 76.28441345 -16.58533569 75.16355347 -16.60565186 74.00872803 C-16.60688049 72.80444153 -16.60810913 71.60015503 -16.609375 70.359375 C-16.62591125 69.12205627 -16.64244751 67.88473755 -16.65948486 66.60992432 C-16.69982385 63.32848469 -16.72314761 60.0475037 -16.73822021 56.76586914 C-16.75780671 53.41404159 -16.80010897 50.06258686 -16.83984375 46.7109375 C-16.91384629 40.14069517 -16.9654191 33.57056166 -17 27 C-17.46325684 27.42587402 -17.92651367 27.85174805 -18.40380859 28.29052734 C-19.02078613 28.8417627 -19.63776367 29.39299805 -20.2734375 29.9609375 C-20.88106934 30.51056152 -21.48870117 31.06018555 -22.11474609 31.62646484 C-24 33 -24 33 -27.625 33.625 C-31.74548084 32.86194799 -33.39085668 32.32072786 -36 29 C-36.86310234 25.48025642 -36.88332851 22.51715559 -36 19 C-34.00071985 16.20397701 -31.7156015 14.09212156 -29 12 C-28.67 12.66 -28.34 13.32 -28 14 C-28.33 14.99 -28.66 15.98 -29 17 C-29.66 17 -30.32 17 -31 17 C-31.33 17.99 -31.66 18.98 -32 20 C-32.99 20 -33.98 20 -35 20 C-34.67 22.97 -34.34 25.94 -34 29 C-33.2575 28.979375 -32.515 28.95875 -31.75 28.9375 C-29.29537721 28.99328688 -27.33890739 29.3069904 -25 30 C-25 29.34 -25 28.68 -25 28 C-22 26 -22 26 -19 26 C-19 25.34 -19 24.68 -19 24 C-17.68 24.33 -16.36 24.66 -15 25 C-14.67 43.15 -14.34 61.3 -14 80 C-13.34 80.33 -12.68 80.66 -12 81 C-11.375 83.0625 -11.375 83.0625 -11 85 C-6.2102679 85.23428313 -6.2102679 85.23428313 -2 83 C-0.69826739 78.86710568 -0.82944962 74.57005829 -0.79467773 70.2722168 C-0.78477814 69.51070816 -0.77487854 68.74919952 -0.76467896 67.96461487 C-0.7332118 65.45951394 -0.7083653 62.95439408 -0.68359375 60.44921875 C-0.66301144 58.70758077 -0.64201463 56.96594765 -0.62062073 55.22431946 C-0.56553193 50.64919982 -0.51606468 46.07403609 -0.46777344 41.49884033 C-0.41746187 36.82666111 -0.36182629 32.15454561 -0.30664062 27.48242188 C-0.19922049 18.32166907 -0.09773991 9.16086084 0 0 Z " fill="#40D75C" transform="translate(224,263)"/>
<path d="M0 0 C0.66 0.33 1.32 0.66 2 1 C1.39816251 3.02045442 0.72693904 5.02111039 0 7 C-0.99 7.495 -0.99 7.495 -2 8 C-2.95641763 13.52647881 -3.18261013 18.99460957 -3.23828125 24.59375 C-3.25038887 25.78019104 -3.25038887 25.78019104 -3.26274109 26.99060059 C-3.27647346 28.65110144 -3.28724329 30.31162923 -3.29516602 31.97216797 C-3.30672259 33.65747448 -3.32723214 35.34274335 -3.35668945 37.02783203 C-3.39956092 39.48755258 -3.41555454 41.94620139 -3.42578125 44.40625 C-3.44328934 45.14919312 -3.46079742 45.89213623 -3.47883606 46.65759277 C-3.45873503 51.56570336 -2.4066918 54.90404862 0.04231262 59.16149902 C1 61 1 61 1.43974304 63.16955566 C1.62462784 63.77360229 1.80951263 64.37764893 2 65 C2.99 65.33 3.98 65.66 5 66 C5.6875 68.0625 5.6875 68.0625 6 70 C6.66 70 7.32 70 8 70 C8.45375 70.474375 8.9075 70.94875 9.375 71.4375 C11.22977487 73.22093737 12.50135592 73.5691993 15 74 C15 74.66 15 75.32 15 76 C19.76307437 76.95261487 24.1666528 77.08333357 29 77 C29.33 76.34 29.66 75.68 30 75 C30.94875 75.020625 31.8975 75.04125 32.875 75.0625 C35.90666283 75.22551826 35.90666283 75.22551826 38 74 C40.3329866 73.95977609 42.66706666 73.95679753 45 74 C45 73.34 45 72.68 45 72 C45.99 72 46.98 72 48 72 C48 71.34 48 70.68 48 70 C48.99 69.34 49.98 68.68 51 68 C51 66.68 51 65.36 51 64 C56.11111111 60 56.11111111 60 59 60 C57.03133613 66.99969375 51.65874163 72.31661595 45.5 75.875 C35.95755593 80.64622204 26.95392347 81.46690438 16.75 78.3125 C6.51805144 74.49697338 1.05020113 68.65007293 -4.07373047 58.97192383 C-5.42541317 54.63506732 -5.3051925 50.4669993 -5.30078125 45.94921875 C-5.30506638 44.97644485 -5.3093515 44.00367096 -5.31376648 43.00141907 C-5.31950003 40.94634782 -5.32001723 38.89125629 -5.31567383 36.83618164 C-5.31252146 33.70879021 -5.3359592 30.58235219 -5.36132812 27.45507812 C-5.36360213 25.45312619 -5.36430415 23.45117172 -5.36328125 21.44921875 C-5.372491 20.52187424 -5.38170074 19.59452972 -5.39118958 18.63908386 C-5.34969312 12.74856635 -4.38233539 8.39736172 -2 3 C-1.34 3 -0.68 3 0 3 C0 2.01 0 1.02 0 0 Z " fill="#48DC61" transform="translate(255,271)"/>
<path d="M0 0 C6.68656539 2.72415627 10.78667863 8.78345905 14 15 C14.85224414 17.84733856 15.13418788 20.41585196 15.16113281 23.38208008 C15.17074036 24.2400972 15.1803479 25.09811432 15.19024658 25.98213196 C15.19449646 26.90197372 15.19874634 27.82181549 15.203125 28.76953125 C15.20882507 29.72389572 15.21452515 30.67826019 15.22039795 31.6615448 C15.22983569 33.67970678 15.23637706 35.69788409 15.24023438 37.71606445 C15.24993157 40.79080336 15.2809633 43.86487123 15.3125 46.93945312 C15.31903143 48.90364188 15.32428135 50.8678354 15.328125 52.83203125 C15.3404718 53.74580032 15.3528186 54.6595694 15.36553955 55.60102844 C15.33201373 65.29173445 11.61088812 71.96795491 5 79 C-0.02493091 83.25254754 -4.3866182 85.7185795 -11 86 C-11 85.34 -11 84.68 -11 84 C-9.35 84 -7.7 84 -6 84 C-6 83.34 -6 82.68 -6 82 C-3.525 81.01 -3.525 81.01 -1 80 C-1 79.34 -1 78.68 -1 78 C-0.29875 77.814375 0.4025 77.62875 1.125 77.4375 C7.17087351 74.41456325 10.07643811 69.46095158 12.35797119 63.22549438 C13.38805973 59.65485047 13.40986224 56.24106112 13.36328125 52.546875 C13.36377975 51.765401 13.36427826 50.983927 13.36479187 50.17877197 C13.36246635 48.53500816 13.35282856 46.89123976 13.33618164 45.24755859 C13.31269128 42.77017266 13.31562032 40.29387475 13.32226562 37.81640625 C13.30540154 29.02724409 12.87231407 20.62957806 11 12 C10.34 12 9.68 12 9 12 C9 11.34 9 10.68 9 10 C8.01 9.67 7.02 9.34 6 9 C6 8.01 6 7.02 6 6 C5.34 6 4.68 6 4 6 C1.875 4.125 1.875 4.125 0 2 C0 1.34 0 0.68 0 0 Z " fill="#35DA52" transform="translate(235,155)"/>
<path d="M0 0 C0.83938171 2.90797314 1.10637112 5.43633791 1.05004883 8.45800781 C1.03706253 9.33281799 1.02407623 10.20762817 1.01069641 11.10894775 C0.99298691 12.04752625 0.9752774 12.98610474 0.95703125 13.953125 C0.93463583 15.9544171 0.91318121 17.9557199 0.89257812 19.95703125 C0.85555611 23.10169559 0.81257915 26.24581062 0.75317383 29.39013672 C0.69841852 32.43204536 0.66951445 35.47334469 0.64453125 38.515625 C0.62074905 39.44610657 0.59696686 40.37658813 0.57246399 41.33526611 C0.54956271 47.09279716 1.14174372 52.44610657 5 57 C7.0655091 57.75486917 7.0655091 57.75486917 9 58 C9 59.65 9 61.3 9 63 C8.01 63 7.02 63 6 63 C2.12239967 58.34687961 -0.23809299 53.7738169 -2 48 C-2.17273438 47.46036621 -2.34546875 46.92073242 -2.5234375 46.36474609 C-3.19948839 43.01012061 -3.18291369 39.67798658 -3.203125 36.26953125 C-3.20882507 35.51967453 -3.21452515 34.76981781 -3.22039795 33.99723816 C-3.22982831 32.41117758 -3.23637412 30.82509759 -3.24023438 29.23901367 C-3.24989729 26.83802071 -3.28092039 24.43790012 -3.3125 22.03710938 C-3.36521404 14.19528353 -3.20236639 7.30645174 0 0 Z " fill="#59DF6E" transform="translate(185,169)"/>
<path d="M0 0 C6.25752034 4.63193603 6.25752034 4.63193603 7.49609375 8.34765625 C6.83609375 8.34765625 6.17609375 8.34765625 5.49609375 8.34765625 C5.49609375 7.68765625 5.49609375 7.02765625 5.49609375 6.34765625 C4.83609375 6.34765625 4.17609375 6.34765625 3.49609375 6.34765625 C3.49609375 5.68765625 3.49609375 5.02765625 3.49609375 4.34765625 C0.85609375 3.68765625 -1.78390625 3.02765625 -4.50390625 2.34765625 C-4.50390625 1.68765625 -4.50390625 1.02765625 -4.50390625 0.34765625 C-9.15443497 0.07833104 -9.15443497 0.07833104 -13.50390625 1.34765625 C-14.82390625 0.02765625 -16.14390625 -1.29234375 -17.50390625 -2.65234375 C-19.01984375 -2.15734375 -19.01984375 -2.15734375 -20.56640625 -1.65234375 C-23.40813405 -0.81654146 -25.17915448 -0.66359789 -28.25390625 -0.71484375 C-31.47432528 -1.01272665 -31.47432528 -1.01272665 -33.12890625 0.84765625 C-33.58265625 1.34265625 -34.03640625 1.83765625 -34.50390625 2.34765625 C-37.19140625 2.53515625 -37.19140625 2.53515625 -39.50390625 2.34765625 C-39.62765625 2.96640625 -39.75140625 3.58515625 -39.87890625 4.22265625 C-40.50390625 6.34765625 -40.50390625 6.34765625 -42.50390625 8.34765625 C-43.49390625 8.34765625 -44.48390625 8.34765625 -45.50390625 8.34765625 C-43.06821133 2.14770554 -37.11117047 -0.69578625 -31.50390625 -3.65234375 C-21.79329167 -6.99856904 -8.46191105 -5.58406922 0 0 Z " fill="#45E160" transform="translate(302.50390625,262.65234375)"/>
<path d="M0 0 C-0.75 2.9375 -0.75 2.9375 -2 6 C-4.125 6.875 -4.125 6.875 -6 7 C-6 7.66 -6 8.32 -6 9 C-7.57421875 10.55078125 -7.57421875 10.55078125 -9.6875 12.3125 C-16.01124235 17.29654027 -16.01124235 17.29654027 -20 24 C-20.66 24 -21.32 24 -22 24 C-21.67 26.64 -21.34 29.28 -21 32 C-17.37 32.66 -13.74 33.32 -10 34 C-10 32.35 -10 30.7 -10 29 C-8.02 29 -6.04 29 -4 29 C-5.68648993 31.78946857 -7.40197622 34.00949889 -10 36 C-13.7699101 36.83238756 -17.24995257 36.95958828 -21 36 C-23.69242909 33.3017305 -23.990079 32.0756476 -24.5 28.1875 C-24.27890149 22.25100497 -20.59823717 18.78089285 -16.8125 14.5625 C-15 13 -15 13 -13 13 C-12.731875 12.401875 -12.46375 11.80375 -12.1875 11.1875 C-11.00082594 9.00152146 -9.90400887 7.58667406 -8 6 C-7.34 6 -6.68 6 -6 6 C-6 5.34 -6 4.68 -6 4 C-2.47058824 0 -2.47058824 0 0 0 Z " fill="#54DC6D" transform="translate(295,151)"/>
<path d="M0 0 C4.09197134 3.38645904 5.48770918 7.0681981 7 12 C7.17345947 12.5463208 7.34691895 13.0926416 7.52563477 13.65551758 C8.18871407 16.93269232 8.18275673 20.18162649 8.203125 23.51171875 C8.20882507 24.23937943 8.21452515 24.9670401 8.22039795 25.7167511 C8.22982699 27.2557328 8.23637359 28.79473449 8.24023438 30.33374023 C8.24989551 32.66231621 8.28091888 34.98999196 8.3125 37.31835938 C8.36608491 45.0529666 8.1325876 51.78680487 5 59 C4.03521036 55.50838034 4.07250845 52.87287905 4.4375 49.25 C4.97378407 42.43561704 5.18304252 35.64743473 5.25 28.8125 C5.27118896 27.81573242 5.29237793 26.81896484 5.31420898 25.79199219 C5.34729542 18.7544485 4.16965607 12.68173582 2 6 C1.608125 4.783125 1.21625 3.56625 0.8125 2.3125 C0.544375 1.549375 0.27625 0.78625 0 0 Z " fill="#4FDA5F" transform="translate(310,271)"/>
<path d="M0 0 C3.13107448 2.39785786 3.94101263 3.59192926 4.5146637 7.56040955 C4.5414166 9.00740582 4.54613211 10.45491164 4.53344727 11.90209961 C4.54206284 12.69444504 4.55067841 13.48679047 4.55955505 14.30314636 C4.58224019 16.91987871 4.57547153 19.53554224 4.56640625 22.15234375 C4.571641 23.97311217 4.57791694 25.79387786 4.58518982 27.61463928 C4.59559891 31.43031577 4.59102575 35.24561945 4.57641602 39.0612793 C4.55923371 43.94868025 4.5827135 48.83490498 4.61790562 53.72217464 C4.63987825 57.4823433 4.6384384 61.24223051 4.6301403 65.00244331 C4.62932058 66.80415702 4.636188 68.60589135 4.65091133 70.40754509 C4.66835394 72.92859799 4.65381897 75.44753758 4.63110352 77.96850586 C4.64279572 78.71100586 4.65448792 79.45350586 4.66653442 80.21850586 C4.59404031 84.17752708 4.12231497 85.84928302 1.59385681 88.96485901 C-0.99086799 90.99283502 -1.92280892 91.65069134 -5.125 91.5 C-9 91 -9 91 -12 88 C-9.03 88.66 -6.06 89.32 -3 90 C-3 89.34 -3 88.68 -3 88 C-1.68 88 -0.36 88 1 88 C2.23441757 84.16959534 2.14778066 80.35256716 2.14526367 76.37329102 C2.14862228 75.6102063 2.1519809 74.84712158 2.15544128 74.06091309 C2.16492941 71.54189419 2.16689324 69.0229419 2.16796875 66.50390625 C2.17118251 64.75040154 2.17454668 62.99689709 2.17805481 61.24339294 C2.18404051 57.5690753 2.18589525 53.89478116 2.18530273 50.22045898 C2.18520107 45.51503418 2.19885973 40.80976014 2.21607494 36.10437107 C2.22719879 32.48324391 2.22922183 28.86215317 2.22869301 25.24101067 C2.22987229 23.50629087 2.23429119 21.7715701 2.24202538 20.03686714 C2.25183422 17.6098387 2.24894388 15.18313734 2.24291992 12.75610352 C2.25134918 11.68443184 2.25134918 11.68443184 2.25994873 10.59111023 C2.23492938 6.61967091 1.74848132 3.57793769 0 0 Z " fill="#4BC462" transform="translate(305,151)"/>
<path d="M0 0 C0.66 0.33 1.32 0.66 2 1 C1.39816251 3.02045442 0.72693904 5.02111039 0 7 C-0.99 7.495 -0.99 7.495 -2 8 C-2.95641763 13.52647881 -3.18261013 18.99460957 -3.23828125 24.59375 C-3.25038887 25.78019104 -3.25038887 25.78019104 -3.26274109 26.99060059 C-3.27647346 28.65110144 -3.28724329 30.31162923 -3.29516602 31.97216797 C-3.30672259 33.65747448 -3.32723214 35.34274335 -3.35668945 37.02783203 C-3.39956092 39.48755258 -3.41555454 41.94620139 -3.42578125 44.40625 C-3.44328934 45.14919312 -3.46079742 45.89213623 -3.47883606 46.65759277 C-3.45873503 51.56570336 -2.4066918 54.90404862 0.04231262 59.16149902 C1 61 1 61 1.43974304 63.16955566 C1.62462784 63.77360229 1.80951263 64.37764893 2 65 C2.99 65.33 3.98 65.66 5 66 C5.6875 68.0625 5.6875 68.0625 6 70 C6.66 70 7.32 70 8 70 C8.33 71.32 8.66 72.64 9 74 C5.03157699 71.90991835 2.81876866 69.83089837 0.3125 66.125 C-0.26886719 65.28195312 -0.85023438 64.43890625 -1.44921875 63.5703125 C-5.04451782 57.61135334 -5.30744812 52.77708431 -5.30078125 45.94921875 C-5.30506638 44.97644485 -5.3093515 44.00367096 -5.31376648 43.00141907 C-5.31950003 40.94634782 -5.32001723 38.89125629 -5.31567383 36.83618164 C-5.31252146 33.70879021 -5.3359592 30.58235219 -5.36132812 27.45507812 C-5.36360213 25.45312619 -5.36430415 23.45117172 -5.36328125 21.44921875 C-5.372491 20.52187424 -5.38170074 19.59452972 -5.39118958 18.63908386 C-5.34969312 12.74856635 -4.38233539 8.39736172 -2 3 C-1.34 3 -0.68 3 0 3 C0 2.01 0 1.02 0 0 Z " fill="#3EDD59" transform="translate(255,271)"/>
<path d="M0 0 C1.32 0.33 2.64 0.66 4 1 C2.8553125 2.0828125 2.8553125 2.0828125 1.6875 3.1875 C-4.66036276 9.83061219 -4.55885372 15.7888314 -4.5559082 24.5546875 C-4.5624429 26.73098316 -4.616877 28.90264134 -4.67382812 31.078125 C-4.76409941 38.54097953 -4.34086313 44.28634418 0.41430664 50.40722656 C3.05595588 53.06067069 4.58326361 53.97574293 8.35546875 54.1953125 C9.62003906 54.17210937 10.88460938 54.14890625 12.1875 54.125 C13.45980469 54.10695313 14.73210937 54.08890625 16.04296875 54.0703125 C17.01878906 54.04710937 17.99460937 54.02390625 19 54 C18 56 18 56 16.265625 56.62109375 C13.71855716 57.04706889 11.33143831 57.09646629 8.75 57.0625 C7.85796875 57.05347656 6.9659375 57.04445313 6.046875 57.03515625 C5.37140625 57.02355469 4.6959375 57.01195312 4 57 C4 56.34 4 55.68 4 55 C3.4225 54.7525 2.845 54.505 2.25 54.25 C-1.70208246 52.05439863 -4.38398719 49.21659882 -6 45 C-6.20367124 42.37490407 -6.3041044 39.85903532 -6.30078125 37.234375 C-6.30506638 36.48214661 -6.3093515 35.72991821 -6.31376648 34.95489502 C-6.31950025 33.36463423 -6.32001706 31.77434722 -6.31567383 30.18408203 C-6.31252868 27.77199492 -6.33593156 25.36115303 -6.36132812 22.94921875 C-6.36360297 21.39843903 -6.36430376 19.84765605 -6.36328125 18.296875 C-6.372491 17.58513123 -6.38170074 16.87338745 -6.39118958 16.14007568 C-6.34325374 10.85140059 -5.06595139 6.86869391 -3 2 C-2.01 2 -1.02 2 0 2 C0 1.34 0 0.68 0 0 Z " fill="#45D75D" transform="translate(272,277)"/>
<path d="M0 0 C2.97 0.495 2.97 0.495 6 1 C6 1.66 6 2.32 6 3 C6.66 3 7.32 3 8 3 C10.3953791 8.70301518 11.52471637 13.50378297 11.7578125 19.6640625 C11.79236542 20.45976654 11.82691833 21.25547058 11.86251831 22.07528687 C11.9285463 23.74392157 11.98697605 25.412873 12.03808594 27.08203125 C12.1250994 29.62790831 12.26500608 32.16756611 12.40625 34.7109375 C12.89461538 46.51983935 12.89461538 46.51983935 10.49902344 50.48339844 C8.08122345 52.62265582 6.28168744 54 3 54 C3 54.66 3 55.32 3 56 C1.02 56 -0.96 56 -3 56 C-0.97172193 54.98586097 1.02695989 53.98889887 3.125 53.125 C5.47778936 51.71332638 5.96633725 50.51032381 7 48 C7.33966797 47.44207764 7.67933594 46.88415527 8.02929688 46.30932617 C10.07625602 41.43956095 9.45252403 35.74816054 9.48046875 30.52075195 C9.4997937 28.33582512 9.5618162 26.15473999 9.625 23.97070312 C9.75208485 15.55891331 9.00506912 9.38454074 3 3 C2.00937696 1.99071016 1.01234949 0.98749608 0 0 Z " fill="#4BDD63" transform="translate(223,168)"/>
<path d="M0 0 C0.33 0.66 0.66 1.32 1 2 C0.67 2.99 0.34 3.98 0 5 C-0.66 5 -1.32 5 -2 5 C-2.33 5.99 -2.66 6.98 -3 8 C-3.99 8 -4.98 8 -6 8 C-5.67 10.97 -5.34 13.94 -5 17 C-4.2575 16.979375 -3.515 16.95875 -2.75 16.9375 C-0.29537721 16.99328688 1.66109261 17.3069904 4 18 C4 17.34 4 16.68 4 16 C7 14 7 14 10 14 C10 13.34 10 12.68 10 12 C11.32 12.33 12.64 12.66 14 13 C13.67 13.99 13.34 14.98 13 16 C12.34 16 11.68 16 11 16 C9.6696875 17.2375 9.6696875 17.2375 8.3125 18.5 C5.76202051 20.68345927 4.95710413 21.00677303 1.4375 21.5625 C-2.74685521 20.87778733 -4.36248257 20.35684037 -7 17 C-7.86310234 13.48025642 -7.88332851 10.51715559 -7 7 C-5.00071985 4.20397701 -2.7156015 2.09212156 0 0 Z " fill="#28E546" transform="translate(195,275)"/>
<path d="M0 0 C0.66 0.66 1.32 1.32 2 2 C-1.49485801 11.66225449 -7.65734641 19.43539948 -17 24 C-19.44104172 24.67184634 -21.45237313 24.89159035 -24 25 C-24 24.34 -24 23.68 -24 23 C-22.35 23 -20.7 23 -19 23 C-19 22.34 -19 21.68 -19 21 C-17.35 20.34 -15.7 19.68 -14 19 C-14 18.34 -14 17.68 -14 17 C-13.29875 16.814375 -12.5975 16.62875 -11.875 16.4375 C-6.42401311 13.71200655 -3.2473583 9.19876285 -1.125 3.5625 C-0.75375 2.386875 -0.3825 1.21125 0 0 Z " fill="#56DC6A" transform="translate(248,216)"/>
<path d="M0 0 C1.32 0.33 2.64 0.66 4 1 C3.525625 1.9075 3.05125 2.815 2.5625 3.75 C-0.5121953 10.14536622 -0.21758675 16.12373865 -0.25 23.125 C-0.270625 24.21554688 -0.29125 25.30609375 -0.3125 26.4296875 C-0.34617645 33.4680658 0.53608356 39.39796747 3 46 C0.53491211 44.47167969 0.53491211 44.47167969 -2 42 C-2.47459278 39.26959333 -2.63470864 37.17301078 -2.55859375 34.453125 C-2.55509666 33.35807648 -2.55509666 33.35807648 -2.55152893 32.24090576 C-2.54180166 30.69759425 -2.52003729 29.15431794 -2.48706055 27.61132812 C-2.43795305 25.27158571 -2.42559481 22.93395969 -2.41992188 20.59375 C-2.40582124 19.08851972 -2.3896116 17.58330742 -2.37109375 16.078125 C-2.36573105 15.388255 -2.36036835 14.69838501 -2.35484314 13.98760986 C-2.23616462 9.03488437 -1.32441603 4.73890024 0 0 Z " fill="#38D953" transform="translate(201,172)"/>
<path d="M0 0 C0.99 0.33 1.98 0.66 3 1 C3.04954963 6.0353859 3.08579037 11.0706289 3.10986328 16.10620117 C3.11990208 17.81814039 3.13353595 19.53006255 3.15087891 21.24194336 C3.17522073 23.70691142 3.18650438 26.17165215 3.1953125 28.63671875 C3.20563507 29.39836838 3.21595764 30.16001801 3.22659302 30.94474792 C3.22745403 35.05065641 3.00678842 38.36810644 1 42 C-1.125 42.8125 -1.125 42.8125 -3 43 C-2.71125 42.484375 -2.4225 41.96875 -2.125 41.4375 C1.25138904 34.12199041 1.27593291 27.45896186 1.1875 19.5 C1.18685547 18.39785156 1.18621094 17.29570312 1.18554688 16.16015625 C1.15591094 10.6742163 0.97032771 5.40278471 0 0 Z " fill="#45DC61" transform="translate(298,285)"/>
<path d="M0 0 C-0.75 2.9375 -0.75 2.9375 -2 6 C-4.125 6.875 -4.125 6.875 -6 7 C-6 7.66 -6 8.32 -6 9 C-7.5390625 10.515625 -7.5390625 10.515625 -9.625 12.25 C-13.27360004 15.34676552 -16.65896986 18.57544411 -20 22 C-20.66 21.67 -21.32 21.34 -22 21 C-21.21625 20.236875 -20.4325 19.47375 -19.625 18.6875 C-16.92742283 16.09108195 -16.92742283 16.09108195 -15 13 C-14.34 13 -13.68 13 -13 13 C-12.731875 12.401875 -12.46375 11.80375 -12.1875 11.1875 C-11.00082594 9.00152146 -9.90400887 7.58667406 -8 6 C-7.34 6 -6.68 6 -6 6 C-6 5.34 -6 4.68 -6 4 C-2.47058824 0 -2.47058824 0 0 0 Z " fill="#7ADE8D" transform="translate(295,151)"/>
<path d="M0 0 C0 0.66 0 1.32 0 2 C-0.63808594 2.19335938 -1.27617187 2.38671875 -1.93359375 2.5859375 C-2.75988281 2.84632813 -3.58617187 3.10671875 -4.4375 3.375 C-5.67306641 3.75785156 -5.67306641 3.75785156 -6.93359375 4.1484375 C-9.17798016 4.80882227 -9.17798016 4.80882227 -10 7 C-11.65 7 -13.3 7 -15 7 C-15.12375 7.61875 -15.2475 8.2375 -15.375 8.875 C-16 11 -16 11 -18 13 C-18.99 13 -19.98 13 -21 13 C-18.56430508 6.80004929 -12.60726422 3.9565575 -7 1 C-4.39260198 0.13086733 -2.78898479 0 0 0 Z " fill="#4DE067" transform="translate(278,258)"/>
<path d="M0 0 C0.66 0 1.32 0 2 0 C2.6509259 1.24735567 3.29551669 2.49801832 3.9375 3.75 C4.29714844 4.44609375 4.65679687 5.1421875 5.02734375 5.859375 C6 8 6 8 6.44140625 10.203125 C6.71791016 11.09257812 6.71791016 11.09257812 7 12 C7.99 12.33 8.98 12.66 10 13 C10.6875 15.0625 10.6875 15.0625 11 17 C11.66 17 12.32 17 13 17 C13.33 18.32 13.66 19.64 14 21 C10.03157699 18.90991835 7.81876866 16.83089837 5.3125 13.125 C4.73113281 12.28195312 4.14976562 11.43890625 3.55078125 10.5703125 C1.39509949 6.9974193 0 4.20405253 0 0 Z " fill="#66E17C" transform="translate(250,324)"/>
<path d="M0 0 C-1.48539285 5.28139679 -5.08672304 9.28054101 -9 13 C-9.66 13 -10.32 13 -11 13 C-11 12.01 -11 11.02 -11 10 C-10.01 9.34 -9.02 8.68 -8 8 C-8 6.68 -8 5.36 -8 4 C-2.88888889 0 -2.88888889 0 0 0 Z " fill="#3BE559" transform="translate(314,331)"/>
<path d="M0 0 C6.16178977 2.51035879 9.63586665 7.676984 13.1796875 13.03515625 C14.18561853 15.44460058 13.87056734 16.58713125 13 19 C11.5393715 16.35261084 11 15.10551666 11 12 C10.34 12 9.68 12 9 12 C9 11.34 9 10.68 9 10 C8.01 9.67 7.02 9.34 6 9 C6 8.01 6 7.02 6 6 C5.34 6 4.68 6 4 6 C1.875 4.125 1.875 4.125 0 2 C0 1.34 0 0.68 0 0 Z " fill="#57D973" transform="translate(235,155)"/>
<path d="M0 0 C0.33 0.66 0.66 1.32 1 2 C0.67 2.99 0.34 3.98 0 5 C-0.66 5 -1.32 5 -2 5 C-2.33 5.99 -2.66 6.98 -3 8 C-3.99 8 -4.98 8 -6 8 C-5.67 10.97 -5.34 13.94 -5 17 C-4.34 17 -3.68 17 -3 17 C-2.67 17.99 -2.34 18.98 -2 20 C-5.875 18.125 -5.875 18.125 -7 17 C-7.74776442 12.5643974 -8.10295497 8.56619606 -5.4375 4.78125 C-3.69488392 3.06674063 -1.93580567 1.49136049 0 0 Z " fill="#57DE6F" transform="translate(195,275)"/>
<path d="M0 0 C4.05606165 0.46800711 7.46588679 0.87953208 11 3 C10.67 4.32 10.34 5.64 10 7 C8.35 7 6.7 7 5 7 C5 5.68 5 4.36 5 3 C3.35 2.67 1.7 2.34 0 2 C0 1.34 0 0.68 0 0 Z " fill="#3DE258" transform="translate(224,151)"/>
<path d="M0 0 C2.12109375 0.3359375 2.12109375 0.3359375 5.12109375 2.3359375 C5.12109375 2.9959375 5.12109375 3.6559375 5.12109375 4.3359375 C1.16109375 4.0059375 -2.79890625 3.6759375 -6.87890625 3.3359375 C-7.20890625 3.9959375 -7.53890625 4.6559375 -7.87890625 5.3359375 C-8.86890625 5.0059375 -9.85890625 4.6759375 -10.87890625 4.3359375 C-7.73553189 -0.03745292 -5.02091431 -0.08466972 0 0 Z " fill="#56DD70" transform="translate(218.87890625,257.6640625)"/>
<path d="M0 0 C0.33 0.99 0.66 1.98 1 3 C-2.78887842 7.73609802 -2.78887842 7.73609802 -6.0078125 8.4375 C-8.125 8.5 -8.125 8.5 -12 8 C-12.99 7.01 -13.98 6.02 -15 5 C-10.545 5.99 -10.545 5.99 -6 7 C-6 6.34 -6 5.68 -6 5 C-4.68 5 -3.36 5 -2 5 C-1.855625 4.360625 -1.71125 3.72125 -1.5625 3.0625 C-1 1 -1 1 0 0 Z " fill="#5EDD73" transform="translate(308,234)"/>
<path d="M0 0 C0.680625 0.309375 1.36125 0.61875 2.0625 0.9375 C5.36965912 2.13370649 8.51545878 2.59005397 12 3 C12.33 3.99 12.66 4.98 13 6 C13.99 6 14.98 6 16 6 C16 6.66 16 7.32 16 8 C10.26216456 7.55862804 5.70482884 5.17947381 1 2 C0.67 1.34 0.34 0.68 0 0 Z " fill="#59DD6F" transform="translate(193,233)"/>
<path d="M0 0 C-1.22976562 0.05607422 -1.22976562 0.05607422 -2.484375 0.11328125 C-3.56203125 0.17902344 -4.6396875 0.24476563 -5.75 0.3125 C-6.81734375 0.37050781 -7.8846875 0.42851562 -8.984375 0.48828125 C-12.21574195 1.03660906 -13.53746969 1.93125269 -16 4 C-16.66 4 -17.32 4 -18 4 C-17.0114653 1.30399627 -16.34022364 0.19441351 -13.8125 -1.25 C-8.66767175 -2.6219542 -4.6545593 -2.56662789 0 0 Z " fill="#5DDF6F" transform="translate(223,168)"/>
<path d="M0 0 C0 2 0 2 -1.25 3.625 C-3 5 -3 5 -7 5 C-7.4021875 5.8353125 -7.4021875 5.8353125 -7.8125 6.6875 C-9.10122647 9.19712523 -10.52926478 11.59334236 -12 14 C-12.66 13.67 -13.32 13.34 -14 13 C-6.16666667 0 -6.16666667 0 0 0 Z " fill="#7BE38B" transform="translate(200,154)"/>
<path d="M0 0 C4.00391564 3.31358535 5.83474094 7.01308621 7 12 C6.6875 15 6.6875 15 6 17 C5.67 17 5.34 17 5 17 C4.80664062 16.27554687 4.61328125 15.55109375 4.4140625 14.8046875 C3.07139714 9.81954385 1.71250514 4.87405309 0 0 Z " fill="#5DDA72" transform="translate(310,271)"/>
<path d="M0 0 C2.97 0.495 2.97 0.495 6 1 C6 1.66 6 2.32 6 3 C6.66 3 7.32 3 8 3 C9.35439668 5.70879335 9.06501451 8.00933268 9 11 C8.608125 10.443125 8.21625 9.88625 7.8125 9.3125 C5.96458999 6.85930004 5.96458999 6.85930004 3.375 4.375 C1 2 1 2 0 0 Z " fill="#5BE16C" transform="translate(223,168)"/>
<path d="M0 0 C0.25 2.75 0.25 2.75 0 6 C-2 8.375 -2 8.375 -4 10 C-5.1092904 6.67212881 -5.01557588 5.3006216 -4 2 C-1 0 -1 0 0 0 Z " fill="#27E844" transform="translate(190,166)"/>
<path d="M0 0 C0.66 0.66 1.32 1.32 2 2 C1.625 5.625 1.625 5.625 1 9 C-0.65 9.66 -2.3 10.32 -4 11 C-3.71125 10.484375 -3.4225 9.96875 -3.125 9.4375 C-1.71219973 6.37643275 -0.8751483 3.25055082 0 0 Z " fill="#5DE273" transform="translate(299,317)"/>
<path d="M0 0 C0 0.99 0 1.98 0 3 C-0.66 3 -1.32 3 -2 3 C-2.12375 3.639375 -2.2475 4.27875 -2.375 4.9375 C-2.58125 5.618125 -2.7875 6.29875 -3 7 C-3.99 7.495 -3.99 7.495 -5 8 C-6.13350534 10.01669827 -6.13350534 10.01669827 -7 12 C-7.99 11.34 -8.98 10.68 -10 10 C-6.66666667 6.66666667 -3.33333333 3.33333333 0 0 Z " fill="#6AE57D" transform="translate(206,264)"/>
<path d="M0 0 C0.33 0 0.66 0 1 0 C1.50404808 2.10320063 2.00310508 4.20759791 2.5 6.3125 C2.7784375 7.48425781 3.056875 8.65601563 3.34375 9.86328125 C4 13 4 13 4 16 C1.19155042 13.72228105 0.08264522 12.63802112 -0.390625 8.984375 C-0.34421875 7.91703125 -0.2978125 6.8496875 -0.25 5.75 C-0.21390625 4.67234375 -0.1778125 3.5946875 -0.140625 2.484375 C-0.09421875 1.66453125 -0.0478125 0.8446875 0 0 Z " fill="#55DC69" transform="translate(199,202)"/>
<path d="M0 0 C1.32 0.33 2.64 0.66 4 1 C3.236875 1.7425 2.47375 2.485 1.6875 3.25 C-0.4393702 5.4263323 -2.2559956 7.52167796 -4 10 C-3.67 7.36 -3.34 4.72 -3 2 C-2.01 2 -1.02 2 0 2 C0 1.34 0 0.68 0 0 Z " fill="#55E176" transform="translate(272,277)"/>
<path d="M0 0 C0 0.66 0 1.32 0 2 C-3.96 2.99 -7.92 3.98 -12 5 C-8.30871504 1.30871504 -5.22695026 0 0 0 Z " fill="#62DD72" transform="translate(278,258)"/>
<path d="M0 0 C-0.75 2.9375 -0.75 2.9375 -2 6 C-4.125 6.875 -4.125 6.875 -6 7 C-6 7.66 -6 8.32 -6 9 C-6.66 8.67 -7.32 8.34 -8 8 C-6.48291727 4.46014029 -4.24676932 0 0 0 Z " fill="#58DC6B" transform="translate(295,151)"/>
<path d="M0 0 C0.66 0 1.32 0 2 0 C0.55922954 3.36179774 -1.24750021 5.59156268 -4 8 C-4.66 8 -5.32 8 -6 8 C-6 7.01 -6 6.02 -6 5 C-5.195625 4.731875 -4.39125 4.46375 -3.5625 4.1875 C-2.716875 3.795625 -1.87125 3.40375 -1 3 C-0.67 2.01 -0.34 1.02 0 0 Z " fill="#71E287" transform="translate(309,336)"/>
<path d="M0 0 C0.99 0.33 1.98 0.66 3 1 C-2.04615385 5.92307692 -2.04615385 5.92307692 -6.875 6.3125 C-7.90625 6.209375 -8.9375 6.10625 -10 6 C-10 5.67 -10 5.34 -10 5 C-8.906875 4.731875 -7.81375 4.46375 -6.6875 4.1875 C-3.38307337 3.12336261 -2.05039578 2.65345336 0 0 Z " fill="#5EDE75" transform="translate(203,290)"/>
<path d="M0 0 C1.32 0.33 2.64 0.66 4 1 C3.34 2.32 2.68 3.64 2 5 C0.68 5 -0.64 5 -2 5 C-2.33 5.99 -2.66 6.98 -3 8 C-3.33 7.34 -3.66 6.68 -4 6 C-3.525625 5.566875 -3.05125 5.13375 -2.5625 4.6875 C-0.76313043 2.97690387 -0.76313043 2.97690387 0 0 Z " fill="#2AE54A" transform="translate(207,263)"/>
<path d="M0 0 C3.3 0 6.6 0 10 0 C10 0.33 10 0.66 10 1 C5.05 2.485 5.05 2.485 0 4 C-0.66 3.34 -1.32 2.68 -2 2 C-1.34 2 -0.68 2 0 2 C0 1.34 0 0.68 0 0 Z " fill="#2EDA4C" transform="translate(278,258)"/>
<path d="M0 0 C1.98 0 3.96 0 6 0 C4.35830472 2.02054804 2.69088222 4.02043058 1 6 C0.67 6 0.34 6 0 6 C0 4.02 0 2.04 0 0 Z " fill="#44DE5F" transform="translate(285,180)"/>
<path d="M0 0 C0.66 0.33 1.32 0.66 2 1 C0.52307692 6.66153846 0.52307692 6.66153846 -2.125 8.375 C-2.74375 8.58125 -3.3625 8.7875 -4 9 C-3.34 7.02 -2.68 5.04 -2 3 C-1.34 3 -0.68 3 0 3 C0 2.01 0 1.02 0 0 Z " fill="#74E286" transform="translate(255,271)"/>
<path d="M0 0 C1.32 0 2.64 0 4 0 C4 1.65 4 3.3 4 5 C3.01 5 2.02 5 1 5 C0.67 3.35 0.34 1.7 0 0 Z " fill="#4EE86F" transform="translate(190,227)"/>
<path d="" fill="#FFFFFF" transform="translate(0,0)"/>
<path d="" fill="#FFFFFF" transform="translate(0,0)"/>
<path d="" fill="#FFFFFF" transform="translate(0,0)"/>
<path d="" fill="#FFFFFF" transform="translate(0,0)"/>
<path d="" fill="#FFFFFF" transform="translate(0,0)"/>
<path d="" fill="#FFFFFF" transform="translate(0,0)"/>
<path d="" fill="#FFFFFF" transform="translate(0,0)"/>
<path d="" fill="#FFFFFF" transform="translate(0,0)"/>
<path d="" fill="#FFFFFF" transform="translate(0,0)"/>
<path d="" fill="#FFFFFF" transform="translate(0,0)"/>
<path d="" fill="#FFFFFF" transform="translate(0,0)"/>
<path d="" fill="#FFFFFF" transform="translate(0,0)"/>
<path d="" fill="#FFFFFF" transform="translate(0,0)"/>
<path d="" fill="#FFFFFF" transform="translate(0,0)"/>
<path d="" fill="#FFFFFF" transform="translate(0,0)"/>
<path d="" fill="#FFFFFF" transform="translate(0,0)"/>
<path d="" fill="#FFFFFF" transform="translate(0,0)"/>
<path d="" fill="#FFFFFF" transform="translate(0,0)"/>
<path d="" fill="#FFFFFF" transform="translate(0,0)"/>
<path d="" fill="#FFFFFF" transform="translate(0,0)"/>
<path d="" fill="#FFFFFF" transform="translate(0,0)"/>
<path d="" fill="#FFFFFF" transform="translate(0,0)"/>
<path d="" fill="#FFFFFF" transform="translate(0,0)"/>
<path d="" fill="#FFFFFF" transform="translate(0,0)"/>
<path d="" fill="#FFFFFF" transform="translate(0,0)"/>
<path d="" fill="#FFFFFF" transform="translate(0,0)"/>
<path d="" fill="#FFFFFF" transform="translate(0,0)"/>
<path d="" fill="#FFFFFF" transform="translate(0,0)"/>
<path d="" fill="#FFFFFF" transform="translate(0,0)"/>
<path d="" fill="#FFFFFF" transform="translate(0,0)"/>
<path d="" fill="#FFFFFF" transform="translate(0,0)"/>
<path d="" fill="#FFFFFF" transform="translate(0,0)"/>
<path d="" fill="#FFFFFF" transform="translate(0,0)"/>
<path d="" fill="#FFFFFF" transform="translate(0,0)"/>
<path d="" fill="#FFFFFF" transform="translate(0,0)"/>
<path d="" fill="#FFFFFF" transform="translate(0,0)"/>
<path d="" fill="#FFFFFF" transform="translate(0,0)"/>
<path d="" fill="#FFFFFF" transform="translate(0,0)"/>
<path d="" fill="#FFFFFF" transform="translate(0,0)"/>
<path d="" fill="#FFFFFF" transform="translate(0,0)"/>
<path d="" fill="#FFFFFF" transform="translate(0,0)"/>
<path d="" fill="#FFFFFF" transform="translate(0,0)"/>
<path d="" fill="#FFFFFF" transform="translate(0,0)"/>
<path d="" fill="#FFFFFF" transform="translate(0,0)"/>
<path d="" fill="#FFFFFF" transform="translate(0,0)"/>
<path d="" fill="#00FFFF" transform="translate(0,0)"/>
<path d="" fill="#FFFFFF" transform="translate(0,0)"/>
<path d="" fill="#FFFFFF" transform="translate(0,0)"/>
<path d="" fill="#FFFFFF" transform="translate(0,0)"/>
<path d="" fill="#FFFFFF" transform="translate(0,0)"/>
<path d="" fill="#FFFFFF" transform="translate(0,0)"/>
<path d="" fill="#FFFFFF" transform="translate(0,0)"/>
<path d="" fill="#FFFFFF" transform="translate(0,0)"/>
<path d="" fill="#FFFFFF" transform="translate(0,0)"/>
<path d="" fill="#FFFFFF" transform="translate(0,0)"/>
<path d="" fill="#FFFFFF" transform="translate(0,0)"/>
<path d="" fill="#FFFFFF" transform="translate(0,0)"/>
<path d="" fill="#FFFFFF" transform="translate(0,0)"/>
<path d="" fill="#FFFFFF" transform="translate(0,0)"/>
<path d="" fill="#FFFFFF" transform="translate(0,0)"/>
<path d="" fill="#FFFFFF" transform="translate(0,0)"/>
<path d="" fill="#FFFFFF" transform="translate(0,0)"/>
<path d="" fill="#FFFFFF" transform="translate(0,0)"/>
<path d="" fill="#FFFFFF" transform="translate(0,0)"/>
<path d="" fill="#FFFFFF" transform="translate(0,0)"/>
<path d="" fill="#FFFFFF" transform="translate(0,0)"/>
<path d="" fill="#FFFFFF" transform="translate(0,0)"/>
<path d="" fill="#FFFFFF" transform="translate(0,0)"/>
<path d="" fill="#FFFFFF" transform="translate(0,0)"/>
<path d="" fill="#FFFFFF" transform="translate(0,0)"/>
<path d="" fill="#FFFFFF" transform="translate(0,0)"/>
<path d="" fill="#FFFFFF" transform="translate(0,0)"/>
<path d="" fill="#FFFFFF" transform="translate(0,0)"/>
<path d="" fill="#FFFFFF" transform="translate(0,0)"/>
<path d="" fill="#FFFFFF" transform="translate(0,0)"/>
<path d="" fill="#FFFFFF" transform="translate(0,0)"/>
<path d="" fill="#FFFFFF" transform="translate(0,0)"/>
</svg>
